<?xml version="1.0" encoding="UTF-8"?>
<!DOCTYPE svg PUBLIC "-//W3C//DTD SVG 1.1//EN" "http://www.w3.org/Graphics/SVG/1.1/DTD/svg11.dtd">
<!-- Creator: CorelDRAW -->
<svg xmlns="http://www.w3.org/2000/svg" xml:space="preserve" width="44mm" height="20mm" version="1.1" style="shape-rendering:geometricPrecision; text-rendering:geometricPrecision; image-rendering:optimizeQuality; fill-rule:evenodd; clip-rule:evenodd"
viewBox="0 0 4400 2000"
 xmlns:xlink="http://www.w3.org/1999/xlink">
 <defs>
  <style type="text/css">
   <![CDATA[
    .str0 {stroke:#2B2B2A;stroke-width:20;stroke-miterlimit:22.9256}
    .fil1 {fill:none}
    .fil2 {fill:white}
    .fil0 {fill:#7688A1}
   ]]>
  </style>
 </defs>
 <g id="Layer_x0020_1">
  <metadata id="CorelCorpID_0Corel-Layer"/>
  <path class="fil0 str0" d="M-9953.14 2362.56l-60.7 0 0 113.95 60.7 0 0 -113.95zm0 -181.18l-60.7 0 0 119.21 60.7 0 0 -119.21zm-60.7 -179.65l0 117.68 60.7 0 0 -117.68 -60.7 0zm-399.29 29.27c105.86,0 191.66,92.96 191.66,207.62 0,114.67 -85.8,207.63 -191.66,207.63 -7.84,0 -15.56,-0.51 -23.15,-1.49l0 137.76c0,78.18 63.97,142.14 142.15,142.14l1051.54 0c78.18,0 142.15,-63.96 142.15,-142.14l0 -683.71c0,-78.18 -63.97,-142.15 -142.15,-142.15l-1051.54 0c-78.18,0 -142.15,63.97 -142.15,142.15l0 133.68c7.59,-0.98 15.31,-1.49 23.15,-1.49zm43.64 469.14c118.06,-16.97 209.14,-126.46 209.14,-258.99 0,-132.53 -91.08,-242.01 -209.14,-258.98l0 -91.26c0,-39.4 32.23,-71.63 71.64,-71.63l284.01 0 0 120.48 60.7 0 0 -120.48 714.27 0c39.41,0 71.64,32.23 71.64,71.63l0 699.51c0,39.4 -32.23,71.64 -71.64,71.64l-714.27 0 0 -123.58 -60.7 0 0 123.58 -284.01 0c-39.41,0 -71.64,-32.24 -71.64,-71.64l0 -90.28z"/>
  <path class="fil0 str0" d="M-12307.5 2724.72l0 -257.62 137.68 0 61.32 0 785.4 0 61.32 0 137.69 0 0 257.62 0 58.23 0 88.68c0,38.69 -31.73,70.36 -70.52,70.36l-279.56 0 -59.74 0 -703.08 0c-38.79,0 -70.51,-31.67 -70.51,-70.36l0 -88.68 0 -58.23zm1000.31 -305.93l-817.21 0 -65.6 0 -117.5 0 0 -91.32 0 -32.46 66.95 0 1049.51 0 66.95 0 0 32.46 0 91.32 -117.51 0 -65.59 0zm242.93 485.15l0 -751.68c-12.78,-42.25 -45.19,-76.22 -86.52,-91.22l-1130.03 0c-41.34,15 -73.75,48.97 -86.53,91.22l0 170.71 0 406.25 0 174.72c12.78,42.26 45.21,76.23 86.56,91.22l1129.97 0c41.35,-14.99 73.77,-48.96 86.55,-91.22zm-59.83 -657.23l-1183.41 0 0 -62.14c0,-38.7 31.72,-70.36 70.51,-70.36l339.3 0 703.08 0c38.79,0 70.52,31.66 70.52,70.36l0 62.14z"/>
  <polygon class="fil0 str0" points="-12156.78,2654.28 -12156.78,2694.25 -12156.78,2702.59 -11625.15,2702.59 -11625.15,2654.28 -12131.13,2654.28 "/>
  <polygon class="fil0 str0" points="-11625.15,2769 -12156.78,2769 -12156.78,2817.31 -11625.15,2817.31 "/>
  <path class="fil0 str0" d="M-11487.74 2672.27l0 127.05c0,7.59 1.67,14.8 4.66,21.29 2.16,4.67 5,8.97 8.39,12.77 9.39,10.5 23.03,17.14 38.14,17.14l132.95 0c28.16,0 51.19,-23.04 51.19,-51.2l0 -80.04 0 -47.01c0,-28.16 -23.03,-51.2 -51.19,-51.2l-11.33 0 -121.62 0c-28.15,0 -51.19,23.04 -51.19,51.2zm58.83 123.91l0 -117.75 120.77 0 0 117.75 -120.77 0z"/>
  <path class="fil0 str0" d="M-10373.68 101.24c50.65,0 96.14,23.04 127.4,59.63 1.44,1.69 2.85,3.41 4.23,5.15 24.38,30.82 39.03,70.35 39.03,113.45 0,98.44 -76.4,178.24 -170.66,178.24 -6.97,0 -13.86,-0.44 -20.61,-1.29l0 118.26c0,54.9 38.12,101.64 90.1,116.82l0 23.06c0,72 59.27,130.92 131.71,130.92l974.34 0c72.44,0 131.71,-58.92 131.71,-130.92l0 -629.69c0,-72.01 -59.27,-130.92 -131.71,-130.92l-11.66 0c-13.97,-46.36 -55.88,-81.57 -106.77,-87.36l-965.97 0c-62.7,7.13 -111.75,58.9 -111.75,121.18l0 114.76c6.75,-0.85 13.64,-1.29 20.61,-1.29zm38.86 402.72c105.12,-14.57 186.22,-108.55 186.22,-222.32 0,-3.13 -0.06,-6.25 -0.18,-9.36 -1.09,-27.66 -6.97,-54.03 -16.81,-78.22 -16.79,-41.3 -45.09,-76.25 -80.69,-100.47 -17.3,-11.77 -36.32,-21.01 -56.59,-27.21 -10.35,-3.16 -21.02,-5.54 -31.95,-7.05l0 -78.34c0,-33.82 28.7,-61.49 63.79,-61.49l252.89 0 54.05 0 636.01 0c25.04,0 46.82,14.09 57.25,34.45 4.18,8.17 6.53,17.35 6.53,27.04l0 36.43 0 564.04c0,33.82 -28.7,61.5 -63.78,61.5l-636.01 0 -54.05 0 -228.14 0 -24.75 0c-12.12,0 -23.48,-3.3 -33.16,-9.02 -18.33,-10.84 -30.63,-30.34 -30.63,-52.48l0 -77.5zm475.61 192.74l527.82 0c69.61,0 126.57,-54.91 126.57,-122.02l0 -557.26 9.67 0c36.63,0 66.6,29.28 66.6,65.07l0 635.36c0,35.78 -29.97,65.07 -66.6,65.07l-664.06 0 0 -86.22zm-387.07 0l330.65 0 0 86.22 -264.05 0c-36.64,0 -66.6,-29.29 -66.6,-65.07l0 -21.15zm212.6 -511.37c-11.61,4.66 -19.78,15.62 -19.78,28.41 0,4.58 1.05,8.92 2.92,12.82l13.38 13.95 117.78 122.79 -25.1 174.1 -1.05 7.26c0,0.19 0,0.38 0,0.57 0,17 14.42,30.78 32.22,30.78 1.36,0 2.7,-0.08 4.01,-0.23l20.14 -10.17 144.43 -72.96 149.21 75.37 14.17 7.16c2.4,0.54 4.91,0.83 7.49,0.83 14.93,0 27.49,-9.71 31.15,-22.88l-3.4 -23.55 -23.97 -166.28 117.47 -122.47 14.26 -14.87c1.7,-3.74 2.64,-7.88 2.64,-12.22 0,-12.71 -8.06,-23.62 -19.56,-28.32l-14.08 -2.43 -167.44 -29 -70.16 -136.57 -5.89 -11.47 -8.76 -17.05c-5.86,-5.77 -14.06,-9.36 -23.14,-9.36 -9.06,0 -17.26,3.58 -23.11,9.34l-8.79 17.1 -5.88 11.44 -70.16 136.57 -167.38 28.99 -13.62 2.35zm221.5 24.23l67.01 -140.72 67.02 140.72 149.15 22.92 -107.74 109.89 25.18 154.89 -133.61 -72.81 -133.6 72.81 25.17 -154.89 -107.74 -109.89 149.16 -22.92z"/>
  <path class="fil0 str0" d="M-12663.98 -168.92l0 328.36 203.86 0 0 -54.47 -147.84 0 0 -273.89 -56.02 0zm-433.63 271.54l268.75 -183.72 -32.54 -44.09 -201.12 138.67c41.66,-197.24 216.73,-345.29 426.38,-345.29 240.68,0 435.79,195.11 435.79,435.79 0,240.68 -195.11,435.79 -435.79,435.79 -9.55,0 -19.02,-0.31 -28.41,-0.91l-1.06 49.55c9.75,0.58 19.57,0.88 29.47,0.88 268.03,0 485.31,-217.28 485.31,-485.31 0,-268.03 -217.28,-485.31 -485.31,-485.31 -224.62,0 -413.59,152.59 -468.92,359.76l-112.22 -187.6 -47.24 30.44 166.91 281.35zm321.09 414.04l-15.95 46.9c20.7,7.04 42.03,12.72 63.88,16.94l9.39 -48.64c-19.61,-3.78 -38.75,-8.88 -57.32,-15.2zm-101.94 -50.42l-27.57 41.15c18.1,12.13 37.06,23.08 56.78,32.73l21.77 -44.49c-17.7,-8.67 -34.72,-18.49 -50.98,-29.39zm-85.66 -75.29l-37.25 32.62c14.1,16.11 29.26,31.28 45.36,45.4l32.65 -37.24c-14.46,-12.68 -28.08,-26.31 -40.76,-40.78zm-63.98 -96.26l-44.52 21.7c9.77,20.03 20.87,39.3 33.2,57.67l41.13 -27.59c-11.07,-16.5 -21.04,-33.8 -29.81,-51.78zm-35.67 -106.32l-48.6 9.54c4.13,21.05 9.62,41.62 16.38,61.6l46.92 -15.86c-6.06,-17.93 -10.99,-36.39 -14.7,-55.28zm-7.23 -55.63c-0.62,-9.51 -0.93,-19.1 -0.93,-28.76l-49.52 0c0,10.75 0.35,21.41 1.04,31.98l49.41 -3.22z"/>
  <path class="fil0 str0" d="M-10817.69 -2355.7c-6.46,0.05 -6.58,-0.17 -6.74,81.67 -0.16,81.84 -0.38,245.74 -0.16,327.7 0.22,81.95 0.88,81.95 2.19,82.11 1.32,0.17 3.29,0.49 50.64,0.66 47.34,0.16 140.06,0.16 188.55,0 48.5,-0.17 52.77,-0.49 63.79,-4.44 11.01,-3.94 28.77,-11.5 44.39,-19.72 15.61,-8.22 29.1,-17.09 40.76,-27.94 11.68,-10.84 21.54,-23.66 31.07,-39.6 9.54,-15.95 18.75,-35.01 25.49,-56.87 6.74,-21.85 11.01,-46.51 12.33,-70.01 1.31,-23.5 -0.33,-45.85 -3.79,-69.35 -3.45,-23.5 -8.71,-48.15 -17.26,-70.34 -8.54,-22.19 -20.38,-41.91 -33.7,-59.16 -13.31,-17.26 -28.11,-32.05 -42.08,-41.91 -13.98,-9.86 -27.12,-14.79 -41.92,-19.06 -14.79,-4.28 -31.24,-7.9 -78.42,-10.2 -47.18,-2.3 -125.1,-3.28 -170.48,-3.61 -45.37,-0.32 -58.19,0.02 -64.66,0.07zm142.52 218.96c0.14,-42.73 0.4,-73.35 0.8,-88.66 0.4,-15.31 0.93,-15.31 3.46,-15.44 2.53,-0.13 7.06,-0.4 17.18,-0.53 10.12,-0.13 25.83,-0.13 36.88,-0.13 11.06,0 17.45,0 25.03,1.73 7.6,1.72 16.39,5.19 25.84,12.38 9.46,7.18 19.57,18.1 26.5,31.68 6.92,13.57 10.65,29.81 12.65,51.25 2,21.43 2.26,48.05 1.33,67.09 -0.93,19.03 -3.06,30.48 -6.92,42.99 -3.87,12.52 -9.46,26.1 -16.12,35.55 -6.65,9.45 -14.38,14.77 -21.97,17.83 -7.59,3.06 -15.04,3.87 -32.49,4.13 -17.44,0.27 -44.87,0 -58.59,-0.4 -13.71,-0.4 -13.71,-0.93 -13.71,-2.13 0,-1.2 0,-3.06 0,-31.41 0,-28.36 0,-83.2 0.13,-125.93z"/>
  <path class="fil0 str0" d="M-10297.77 -2163.33c5.52,11.66 12.07,23.52 20.87,33.13 8.8,9.61 19.85,16.98 32.12,24.34 12.27,7.36 25.78,14.72 40.1,20.04 14.32,5.32 29.46,8.59 48.89,13.5 19.44,4.91 43.17,11.45 61.17,16.77 18,5.32 30.28,9.41 39.49,14.93 9.2,5.52 15.34,12.47 19.22,21.27 3.89,8.79 5.53,19.43 1.85,29.66 -3.69,10.22 -12.69,20.04 -23.33,26.79 -10.63,6.75 -22.91,10.43 -36.62,11.45 -13.7,1.02 -28.84,-0.62 -41.32,-4.7 -12.48,-4.09 -22.3,-10.64 -29.26,-19.44 -6.95,-8.79 -11.04,-19.83 -13.91,-29.44 -2.86,-9.61 -4.5,-17.8 -5.73,-21.88 -1.22,-4.1 -2.04,-4.1 -12.89,-3.48 -10.83,0.61 -31.7,1.84 -55.03,3.07 -23.32,1.22 -49.09,2.45 -62.19,3.68 -13.09,1.22 -13.5,2.45 -13.5,6.75 0,4.29 0.41,11.65 3.68,24.54 3.28,12.88 9.41,31.28 16.16,44.79 6.76,13.49 14.12,22.09 20.87,29.86 6.75,7.77 12.89,14.72 22.71,23.11 9.82,8.38 23.32,18.2 35.39,24.33 12.07,6.14 22.71,8.59 38.05,10.84 15.35,2.26 35.4,4.3 51.76,5.12 16.37,0.81 29.05,0.41 43.58,0 14.53,-0.41 30.89,-0.82 46.03,-2.25 15.14,-1.43 29.05,-3.89 43.98,-7.98 14.94,-4.09 30.9,-9.82 45.62,-19.43 14.73,-9.61 28.24,-23.11 39.28,-37.22 11.05,-14.11 19.65,-28.84 25.17,-43.56 5.52,-14.73 7.98,-29.45 9,-44.38 1.02,-14.93 0.61,-30.07 -2.66,-45 -3.27,-14.93 -9.41,-29.65 -17.59,-41.93 -8.19,-12.27 -18.42,-22.08 -30.28,-31.08 -11.87,-9 -25.37,-17.18 -42.55,-24.75 -17.19,-7.56 -38.06,-14.52 -57.29,-20.04 -19.23,-5.53 -36.82,-9.61 -52.99,-13.29 -16.16,-3.69 -30.88,-6.96 -42.96,-10.64 -12.07,-3.68 -21.47,-7.77 -28.23,-13.29 -6.75,-5.52 -10.84,-12.48 -12.48,-18.82 -1.63,-6.34 -0.81,-12.06 1.84,-18.2 2.67,-6.14 7.16,-12.68 12.48,-16.36 5.32,-3.69 11.46,-4.5 18.01,-5.52 6.54,-1.03 13.5,-2.26 22.09,-2.46 8.59,-0.2 18.82,0.61 27.41,2.05 8.59,1.43 15.55,3.47 21.89,7.77 6.35,4.29 12.07,10.84 15.76,16.98 3.68,6.13 5.32,11.85 6.54,16.97 1.23,5.11 2.05,9.61 5.32,11.45 3.28,1.84 9,1.02 22.3,0.21 13.3,-0.82 34.17,-1.64 54.83,-1.84 20.66,-0.21 41.12,0.2 51.35,0 10.23,-0.21 10.23,-1.03 9,-7.57 -1.23,-6.55 -3.68,-18.82 -8.39,-31.09 -4.7,-12.27 -11.66,-24.54 -20.25,-36.61 -8.59,-12.06 -18.82,-23.93 -31.3,-32.93 -12.48,-9 -27.21,-15.13 -45.83,-20.24 -18.61,-5.12 -41.12,-9.21 -61.17,-11.46 -20.04,-2.25 -37.64,-2.65 -54.83,-1.63 -17.18,1.02 -33.95,3.47 -48.68,6.14 -14.73,2.65 -27.41,5.52 -40.3,9.81 -12.89,4.3 -25.98,10.02 -37.44,16.77 -11.46,6.75 -21.28,14.52 -29.26,23.93 -7.98,9.41 -14.11,20.45 -18.82,32.11 -4.71,11.66 -7.98,23.93 -9.61,35.99 -1.64,12.07 -1.64,23.93 0.61,35.59 2.25,11.66 6.75,23.11 12.27,34.77z"/>
  <path class="fil0 str0" d="M-10672.93 -1731.46c-11.63,-29.67 -39.19,-50.54 -71.33,-50.54 -42.66,0 -77.24,36.75 -77.24,82.08 0,40.28 27.3,73.78 63.3,80.75l27.88 0c26.15,-5.06 47.72,-24.13 57.55,-49.62 -11.64,-5.65 -23.28,-11.31 -34.92,-16.96 -4.87,18.33 -19.7,31.67 -37.23,31.67 -21.49,0 -38.91,-20.04 -38.91,-44.77 0,-24.72 17.42,-44.77 38.91,-44.77 15.07,0 28.16,9.86 34.62,24.28 12.45,-4.04 24.91,-8.08 37.37,-12.12z"/>
  <path class="fil0 str0" d="M-10574.18 -1781.7c-42.59,0 -77.1,36.68 -77.1,81.93 0,40.2 27.24,73.64 63.17,80.6l27.85 0c35.93,-6.96 63.17,-40.4 63.17,-80.6 0,-45.25 -34.51,-81.93 -77.09,-81.93zm-39.5 83c0,-24.68 17.39,-44.69 38.84,-44.69 21.45,0 38.84,20.01 38.84,44.69 0,24.68 -17.39,44.69 -38.84,44.69 -21.45,0 -38.84,-20.01 -38.84,-44.69z"/>
  <path class="fil0 str0" d="M-10277.23 -1782.59l0 161.82 47.97 0 0 -54.29 24.18 0c29.58,0 53.77,-24.19 53.77,-53.76 0,-29.57 -24.19,-53.75 -53.77,-53.75l-24.18 -0.02 -47.97 0zm47.19 74.41l0 -38.88 0.78 0 22.1 0c10.7,0 19.44,8.75 19.44,19.44 0,10.69 -8.74,19.44 -19.44,19.44l-22.1 0 -0.78 0z"/>
  <polygon class="fil0 str0" points="-9979.42,-1781.71 -9979.42,-1619.17 -9931.46,-1619.17 -9931.46,-1781.71 "/>
  <path class="fil0 str0" d="M-9732.05 -1774.72l0 147.86 0 7.69 43.98 0 0 -7.69 0 -72.55c17.23,24.18 34.47,48.37 51.7,72.55l6.72 0 0 7.69 43.97 0 0 -7.69 0 -147.86 -43.97 0 0 75.42c-18.8,-25.14 -37.61,-50.27 -56.41,-75.42l-2.01 0 -43.98 0z"/>
  <polygon class="fil0 str0" points="-9521.72,-1741.16 -9521.72,-1624.86 -9471.75,-1624.86 -9471.75,-1741.16 -9425.91,-1741.16 -9425.91,-1776.72 -9471.75,-1776.72 -9521.72,-1776.72 -9569.69,-1776.72 -9569.69,-1741.16 "/>
  <path class="fil0 str0" d="M-9815.13 -2163.33c5.53,11.66 12.08,23.52 20.87,33.13 8.8,9.61 19.85,16.98 32.12,24.34 12.28,7.36 25.78,14.72 40.1,20.04 14.32,5.32 29.46,8.59 48.9,13.5 19.43,4.91 43.16,11.45 61.17,16.77 18,5.32 30.27,9.41 39.48,14.93 9.21,5.52 15.34,12.47 19.23,21.27 3.89,8.79 5.52,19.43 1.84,29.66 -3.68,10.22 -12.68,20.04 -23.32,26.79 -10.64,6.75 -22.91,10.43 -36.62,11.45 -13.71,1.02 -28.85,-0.62 -41.32,-4.7 -12.48,-4.09 -22.31,-10.64 -29.26,-19.44 -6.96,-8.79 -11.05,-19.83 -13.91,-29.44 -2.86,-9.61 -4.5,-17.8 -5.73,-21.88 -1.23,-4.1 -2.05,-4.1 -12.89,-3.48 -10.84,0.61 -31.71,1.84 -55.03,3.07 -23.32,1.22 -49.1,2.45 -62.19,3.68 -13.1,1.22 -13.5,2.45 -13.5,6.75 0,4.29 0.4,11.65 3.67,24.54 3.28,12.88 9.42,31.28 16.17,44.79 6.75,13.49 14.11,22.09 20.86,29.86 6.76,7.77 12.89,14.72 22.71,23.11 9.82,8.38 23.33,18.2 35.4,24.33 12.06,6.14 22.71,8.59 38.05,10.84 15.34,2.26 35.39,4.3 51.76,5.12 16.36,0.81 29.05,0.41 43.57,0 14.53,-0.41 30.89,-0.82 46.03,-2.25 15.14,-1.43 29.06,-3.89 43.99,-7.98 14.93,-4.09 30.89,-9.82 45.62,-19.43 14.73,-9.61 28.23,-23.11 39.28,-37.22 11.04,-14.11 19.64,-28.84 25.16,-43.56 5.53,-14.73 7.98,-29.45 9,-44.38 1.03,-14.93 0.62,-30.07 -2.66,-45 -3.27,-14.93 -9.41,-29.65 -17.59,-41.93 -8.18,-12.27 -18.41,-22.08 -30.28,-31.08 -11.86,-9 -25.37,-17.18 -42.55,-24.75 -17.18,-7.56 -38.05,-14.52 -57.28,-20.04 -19.23,-5.53 -36.83,-9.61 -52.99,-13.29 -16.16,-3.69 -30.89,-6.96 -42.96,-10.64 -12.07,-3.68 -21.48,-7.77 -28.23,-13.29 -6.75,-5.52 -10.84,-12.48 -12.48,-18.82 -1.64,-6.34 -0.82,-12.06 1.84,-18.2 2.66,-6.14 7.16,-12.68 12.48,-16.36 5.32,-3.69 11.46,-4.5 18,-5.52 6.55,-1.03 13.51,-2.26 22.1,-2.46 8.59,-0.2 18.82,0.61 27.41,2.05 8.59,1.43 15.55,3.47 21.89,7.77 6.34,4.29 12.07,10.84 15.75,16.98 3.68,6.13 5.32,11.85 6.55,16.97 1.23,5.11 2.04,9.61 5.32,11.45 3.27,1.84 9,1.02 22.29,0.21 13.3,-0.82 34.17,-1.64 54.83,-1.84 20.67,-0.21 41.12,0.2 51.35,0 10.23,-0.21 10.23,-1.03 9,-7.57 -1.22,-6.55 -3.68,-18.82 -8.38,-31.09 -4.71,-12.27 -11.66,-24.54 -20.25,-36.61 -8.6,-12.06 -18.83,-23.93 -31.31,-32.93 -12.48,-9 -27.2,-15.13 -45.82,-20.24 -18.62,-5.12 -41.12,-9.21 -61.17,-11.46 -20.05,-2.25 -37.65,-2.65 -54.83,-1.63 -17.19,1.02 -33.96,3.47 -48.69,6.14 -14.73,2.65 -27.41,5.52 -40.3,9.81 -12.89,4.3 -25.98,10.02 -37.44,16.77 -11.46,6.75 -21.27,14.52 -29.25,23.93 -7.98,9.41 -14.12,20.45 -18.83,32.11 -4.7,11.66 -7.97,23.93 -9.61,35.99 -1.64,12.07 -1.64,23.93 0.61,35.59 2.25,11.66 6.76,23.11 12.27,34.77z"/>
  <path class="fil0 str0" d="M-10406.5 -1622.51l-32.63 0 0 -103.41c10.88,34.47 21.75,68.94 32.63,103.41zm34.23 0c8.37,-32.53 16.73,-65.05 25.09,-97.58l0 97.58 -25.09 0zm-21.58 -73.52c-4.51,-17.25 -13.36,-51.2 -22.36,-85.68l-22.92 0 -37.97 0 0 161.59 71.35 0 96.54 0 0 -161.59 -37.97 0 -21.57 0c-6.82,34.5 -13.63,69.01 -20.45,103.52 0,0 0,0 -4.65,-17.84z"/>
  <path class="fil0 str0" d="M-10123.33 -1783.76l0 164.59 119.92 0 0 -47.65c-24.65,0 -49.3,0 -73.95,0l0 -116.94 -43.97 0 -2 0z"/>
  <path class="fil0 str0" d="M-9855.13 -1783.46c-19.9,54.76 -39.8,109.53 -59.7,164.29l49.36 0c3.19,-10.06 6.37,-20.06 9.41,-29.67l51.27 0c3.29,9.6 6.72,19.62 10.16,29.67l40.28 0c-18.38,-54.76 -36.77,-109.53 -55.15,-164.29l-45.63 0zm9.83 100.65c3.45,-10.87 6.39,-20.2 8.56,-27.1 2.97,-9.48 4.49,-14.37 5.25,-16.95 0.48,1.42 1.91,5.6 6.12,17.9 2.27,6.64 5.35,15.64 8.96,26.15l-28.89 0z"/>
  <polygon class="fil0 str0" points="-11140.37,-1591.4 -11185.41,-1690.29 -11268.64,-1549.48 "/>
  <path class="fil0 str0" d="M-11314.39 -1609.43c26.2,-44.97 49.56,-85.04 66.61,-114.55 17.04,-29.5 27.77,-48.44 48.13,-77.31 20.36,-28.87 50.35,-67.69 71.18,-96.09 20.84,-28.4 32.52,-46.39 52.88,-71.63 20.36,-25.25 49.4,-57.75 71.34,-80.79 21.94,-23.03 36.77,-36.6 53.03,-50.17 16.26,-13.57 33.93,-27.14 43.72,-35.66 9.78,-8.52 11.67,-11.99 12.62,-14.04 0.95,-2.05 0.95,-2.68 -1.89,-5.05 -2.84,-2.37 -8.53,-6.47 -19.57,-8.2 -11.05,-1.74 -27.46,-1.11 -44.51,0.94 -17.04,2.05 -34.72,5.52 -54.77,11.99 -20.04,6.47 -42.45,15.94 -59.81,24.3 -17.36,8.36 -29.68,15.62 -41.99,24.62 -12.31,8.99 -24.62,19.72 -43.56,38.18 -18.94,18.46 -44.51,44.65 -76.07,80.79 -31.57,36.13 -69.13,82.2 -120.27,156.2 -51.13,74 -115.85,175.93 -156.25,239.83 -40.41,63.9 -56.5,89.77 -71.18,114.39 -14.68,24.61 -27.93,47.96 -36.93,63.27 -9,15.3 -13.73,22.56 -18.15,26.19 -4.42,3.63 -8.53,3.63 -12.95,0.95 -4.41,-2.68 -9.15,-8.05 -16.57,-16.73 -7.42,-8.68 -17.51,-20.67 -26.2,-30.29 -8.68,-9.63 -15.94,-16.89 -27.46,-27.45 -11.52,-10.58 -27.3,-24.46 -41.04,-35.82 -13.73,-11.36 -25.4,-20.2 -36.77,-28.56 -11.36,-8.36 -22.41,-16.25 -30.3,-20.82 -7.9,-4.58 -12.63,-5.85 -18.31,-6.79 -5.68,-0.95 -12.31,-1.58 -20.52,-0.16 -8.21,1.42 -17.99,4.89 -26.83,8.68 -8.84,3.78 -16.73,7.89 -23.52,12.94 -6.78,5.05 -12.47,11.04 -17.2,17.04 -4.74,5.99 -8.52,11.99 -10.42,17.04 -1.89,5.04 -1.89,9.15 -1.89,15.14 0,6 0,13.89 0.94,21.46 0.95,7.57 2.85,14.83 7.11,23.04 4.26,8.2 10.89,17.36 21.31,31.42 10.42,14.06 24.62,33.02 39.46,52.74 14.84,19.73 30.3,40.21 56.66,69.38 26.35,29.17 63.6,67.04 88.38,88.02 24.78,20.99 37.09,25.09 49.08,28.09 12,3 23.68,4.89 36.62,5.05 12.94,0.15 27.15,-1.42 39.46,-4.1 12.31,-2.69 22.73,-6.47 31.09,-11.52 8.36,-5.05 14.68,-11.36 20.67,-18.46 6,-7.1 11.68,-14.99 22.89,-33.14 11.2,-18.14 27.94,-46.54 46.71,-78.25 18.79,-31.72 39.62,-66.75 55.09,-94.2 15.47,-27.46 25.57,-47.34 45.14,-82.21 19.57,-34.87 48.61,-84.73 74.81,-129.7z"/>
  <path class="fil0 str0" d="M-13171.54 -1465.82l7.45 -629.97 368.76 0.07c1.5,0 3.01,0.02 4.5,0.04 136.92,2.09 247.16,99.36 247.16,219.04 0,106.22 -86.84,194.79 -202.09,214.83l-173.44 1.09 -1.09 195.62 -251.25 -0.72zm1646.2 -250.55l202.09 -276.63 -262.44 -576.3 -1957.04 87.53 371.19 1015.95 175.69 480.85 1044.78 -341.47c-6.52,-7.29 -13.05,-14.57 -19.47,-23.73 -6.42,-9.17 -12.73,-20.22 -18.73,-32.84 -6,-12.62 -11.68,-26.82 -16.47,-39.42 -4.78,-12.6 -8.67,-23.6 -12.56,-34.6 -19.43,2.18 -39.29,3.32 -59.48,3.32 -230.46,0 -417.27,-147.44 -417.27,-329.33 0,-181.88 186.81,-329.32 417.27,-329.32 70.39,0 136.72,13.76 194.89,38.05l0 169.73c-39.11,-32.86 -94.23,-53.32 -155.29,-53.32 -118.64,0 -214.8,77.22 -214.8,172.5 0,95.27 96.16,172.5 214.8,172.5 66.79,0 126.47,-24.5 165.86,-62.9l0 68.11c5.11,-0.94 10.21,-1.89 16.55,-1.58 6.34,0.32 13.91,1.9 21.96,4.26 8.05,2.37 16.57,5.53 26.59,10.55 10.03,5.02 21.54,11.91 27.29,15.35 5.76,3.45 5.76,3.45 5.76,3.45l2.52 -522.64 248.83 0 -2.52 381.93zm-125.3 -448.28c-79.94,0 -144.74,-58.12 -144.74,-129.81 0,-71.71 64.8,-129.83 144.74,-129.83 79.93,0 144.73,58.12 144.73,129.83 0,71.69 -64.8,129.81 -144.73,129.81z"/>
  <path class="fil0 str0" d="M-12875.91 -1966.67l-34.02 -0.01 -0.04 171.08 28.62 0 10.82 0.01c61.11,-2.08 109.8,-39.57 109.8,-85.5 0,-47.26 -51.57,-85.58 -115.18,-85.58z"/>
  <rect class="fil1 str0" x="-10453.61" y="-228.23" width="1453.15" height="1152.66"/>
  <path class="fil2" d="M1077.46 860.05c-6.97,55.42 11.63,43.75 -118.96,43.75 0,-32.17 -2.2,-33.72 3.35,-60.6l-28 28.99c-62.08,54.2 -161.66,58.37 -205.6,-7.76 -58.86,-88.56 -40.25,-241.64 51.01,-310.6 13.91,-10.51 21.07,-14.54 37.29,-22.31 14.18,-6.78 28.68,-9.82 44.18,-14.5 29.62,-8.94 97.31,-11.36 127.97,-3.3 1.94,-26.28 12.25,-42.43 -1.19,-66.83 -26.26,-47.67 -188.39,-16.64 -223.66,2.45 0,-23.73 7.27,-47.9 9.52,-68.79 2.62,-24.31 7.26,-47.92 7.26,-71.35 16.94,-1.58 85.46,-34.08 164.44,-34.08 27.41,0 80.92,10.07 100.63,22.78 27.36,17.66 47.13,33.72 61.39,67.05 28.07,65.55 13.3,152.11 4.75,219.57l-34.38 275.53zm249.05 -112.81c30.11,-69.43 -63.81,-86.86 -98.84,-120.7 -52.09,-50.33 -61.12,-84.94 -61.12,-162.05 0,-33.76 16.36,-90.55 38.95,-118.9 0.47,-0.58 1.16,-1.4 1.63,-1.95l22.93 -23.36c13.51,-10.62 24.29,-18.55 40.94,-25.75 21.59,-9.35 78.94,-22.33 110.13,-19.23 15.06,1.49 44.74,3.88 58.31,6.21 22.22,3.83 49.29,2.83 49.29,12.56l-15.52 118.82c-2.47,14.92 -0.5,16.43 -14.49,18.02 -14.78,1.67 -101.45,-22.74 -135.91,5.39 -13.75,11.22 -29.34,49.24 4.03,74.54l44.07 26.02c18.53,10.04 37.43,23.07 52.08,39.68l8.02 9.88c10.57,12.99 19.97,29.95 24.97,47.56 13.88,48.84 12.72,135 -5.46,173.66 -21.6,45.96 -53.87,79.59 -99.59,92.14 -61.07,16.77 -191.04,16.3 -234.71,-7.35 0.44,-22.49 14.62,-127.17 20.13,-140.11 26.91,7.06 165.33,52.17 190.16,-5.08zm211.04 -303.41l35.08 -244.45 137.59 0c-4.74,22.98 -9.49,73.73 -16.78,90.89 16.38,0 42.37,-1.83 57.53,-0.24 14.31,1.54 11.54,3.61 10.64,15.61 -3.12,41.7 -14.54,91.51 -17.84,136.11l-67.11 0c-9.37,45.36 -13.7,93.45 -21.56,142.31 -3.93,24.42 -5.25,48.7 -9.49,72.6 -5.39,30.35 -19.7,79.33 5.37,98.12 20.51,15.34 49.74,5.1 69.31,5.1 -1.27,17.06 -5.09,40.28 -8.13,59.01 -3.32,20.4 -5.07,40.84 -7.82,59.33 -2.26,15.1 -0.44,15.5 -12.05,20.51 -34.53,14.85 -101.7,25.39 -139.91,5.19 -47.4,-25.06 -56.93,-81.17 -56.93,-136.46 0,-24.18 22.76,-171.79 27.3,-219.16l11.63 -66.37c2.17,-13.44 0.96,-24.42 3.17,-38.1zm2894.13 -461.38l-4470.64 0 0 2042.76 4470.64 0 0 -2042.76zm-4212.91 862.94c-12.7,75.69 11.18,58.41 -126.11,58.41 -7.73,0 -10.06,-2.65 -10.06,-11.37l104.03 -742.28 198 0c0,79.25 3.35,145.92 3.35,223.44 0,75.75 0,151.49 0,227.23 9.36,-12.15 38.38,-121.73 42.9,-140.96 3.39,-14.47 4.86,-14.3 8.67,-28.07l79.31 -281.64 211.43 0c0,19.68 -4.72,31.4 -6.47,49.52l-13.68 98.17c-6.37,68.51 -28.7,211.51 -39.82,284.53l-32.02 236.55c-3.03,23.34 -7.53,84.88 -22.11,84.88 -161.78,0 -127.24,15.76 -118.31,-61.56l64.62 -491.36c-8.83,11.45 -5.94,15.51 -12.11,35.56l-105.35 350.71c-3.52,14.76 -6.59,20.37 -10.5,33.61 -7.07,23.95 -12.19,46.75 -20.61,71.42 -12.28,35.89 -14.04,61.62 -25.95,61.62 -94.01,0 -87.77,7.78 -87.54,-26.19l-3.08 -102.56c0.21,-45.81 2.36,-101.82 -2.42,-141.17l-4.41 -138.96c-0.51,-46.52 0.13,-93.67 0.13,-140.26l-62.34 422.52c-4.02,23.95 -5.58,44.63 -9.55,68.21zm1625.64 24.36c-63.75,-52.49 -87.21,-145.94 -87.21,-231.05 0,-23.82 3.87,-50.8 6.48,-72.23 4.35,-35.72 15.53,-90.47 29.25,-122.26 14.3,-33.13 31.21,-67.05 54.33,-93.95l8.64 -9.19c33.3,-33.8 80.15,-65.95 126.15,-65.95 61.04,0 118.56,15.56 153.01,65.92 28.94,42.33 44.98,84.39 44.98,157.52 0,99.05 -13.95,113.2 -16.79,151.5l-268.46 0 0 22.72c0,116.5 134.13,110.05 205.98,84.74 15.52,-5.47 37.62,-18.97 52.43,-20.37 -6.95,16.35 -16.93,141.77 -24.35,150.54 -14.92,17.66 -170.99,46.11 -245.31,6.08 -16.48,-8.88 -25.72,-12.98 -39.13,-24.02zm-1249.36 385.12c65.01,-54.91 164.81,-55.97 220.54,7.13l3.27 3.88c22.05,26.94 24.03,34.3 36.79,64.52 19.36,45.96 15.6,95.97 15.6,145.26 0,40.89 -12.7,75.92 -13.44,113.61l-251.7 0c-1.51,20.6 -1.7,49.65 7.97,70.54 8.42,18.23 21.51,33.02 38.47,39.92 39.98,16.24 81.24,15.62 122.05,3.93 15.34,-4.39 25.2,-6.17 38.5,-13.36 11.93,-6.46 19.41,-12.49 34.65,-13.92l-16.89 109.7c-0.42,8.46 -2.85,29.42 -5.6,35.34 -8.16,17.68 -37.32,18.3 -56.73,23.09 -23.2,5.73 -43.2,9.13 -63,9.86l-16.14 0c-15.82,-0.59 -32.01,-2.91 -50.1,-7.13 -33.87,-7.92 -53.89,-15.41 -80.22,-38.25 -26.61,-23.07 -51.61,-59.74 -61.12,-93.85 -13.55,-48.55 -19.34,-75.34 -19.34,-137.23 0,-74.51 10.52,-128.22 31.41,-191.77 3.86,-11.77 5.7,-15.17 10.51,-26.01 9.97,-22.47 24.91,-51.57 39.41,-69.15 11.7,-14.19 21.12,-24.28 35.11,-36.11zm-171.2 229.55c7.18,17.18 18.58,80.85 17.35,104.28 -4.73,90.6 -21.31,166.78 -86.7,220.31 -27.72,22.69 -91.87,45.36 -127.6,45.36l-3.24 0 -18.34 0c-43.36,-0.08 -28.23,-1.18 -86.15,-14.77l-63.42 -23.1 21.03 -112.59c0.99,-4.56 3.1,-11.26 4.26,-17.98 1.15,-6.56 0.92,-12.16 1.92,-17.29 3.48,-17.88 5.59,-9.35 18.99,0.79 44.17,33.38 128.4,43.16 175.26,10.7 31.1,-21.54 26.87,-56.19 26.87,-87.07 0,-38.88 -60.5,-72.34 -83.73,-87.29 -20.22,-13.02 -46.18,-32.09 -61.45,-51.85 -47.88,-61.97 -38.38,-132.17 -36.08,-194.18 0.57,-15.68 6.63,-34.81 11.06,-48.11 19.98,-60.07 45.85,-102.22 101.11,-128.29 25.01,-11.81 52.55,-20.48 85.87,-20.48 133.27,0 109.15,16.64 161.1,30.29 -0.32,15.86 -4.33,26.3 -7.42,40.87 -2.37,11.23 -3.98,24 -6.85,37.73l-15.94 76.69c-13.09,-3.45 -14.4,-7.33 -25.17,-13.27 -7.27,-4.01 -16.52,-7.45 -24.2,-10.57 -15.15,-6.15 -41.8,-10.25 -61.38,-10.25 -100.51,0 -101.89,82.88 -68.11,122.3 11.33,13.25 36.67,29.83 52.34,39.4l17.37 10.71c39.44,26.59 61.81,51.19 81.25,97.66zm2867 -580.62c-143.26,0 -112.19,13.22 -110.74,-60.6 -26.72,20.19 -33.12,55.09 -114.21,68.05 -50.92,8.12 -89.76,-6.67 -121.85,-51.61l-19.97 -41.85c-10.06,-31.87 -9.09,-59.6 -9.09,-91.99 0,-90.81 51.25,-166.34 127.02,-197.5 50.88,-20.92 87.64,-18.38 141.46,-18.38 19.96,0 24.1,14.59 27.04,-11.12 3.67,-31.85 3.61,-54.7 -21.58,-67 -38.71,-18.91 -113.48,-7.62 -154.59,0.74l-52.23 16.8 20.13 -140.14c89.94,-23.63 135.72,-50.06 234.24,-21.96 21.54,6.14 38.41,15.23 56.4,31.05 62.93,55.34 52.77,179.18 39.1,256.99l-41.13 328.52zm60.41 0c0,-42.64 8.46,-85.08 14.27,-135.4l66.27 -478.13 124.17 0c0,29.06 -10.07,51.05 -10.07,83.32l26.57 -38.2c16.38,-21.58 26.12,-40 55.26,-47.48 25.66,-6.58 19.79,-3.55 42.34,-1.43 -0.38,19.56 -8.06,28.31 -13.94,44.87 -11.58,32.6 -32.34,97.4 -33.04,133.14 -26.07,0 -37.36,2.29 -51.35,17.78 -20.93,23.16 -34.86,75.97 -39.3,107.14 -3.3,23.16 -8.57,40.29 -12.02,62.19l-31.31 229.76c-0.47,13.09 1.8,22.44 -10.32,22.44l-127.53 0zm330.15 -46.88c-0.49,-0.56 -1.18,-1.36 -1.64,-1.93l-23.6 -37.76c-12.76,-30.4 -29.72,-78.61 -29.72,-114.16 0,-118.21 -5.63,-76.8 14.26,-184.62 7.77,-42.17 34.39,-103.34 56.18,-137.31 62.88,-98.03 168.57,-138.86 246.27,-58.2 0.51,0.52 1.24,1.29 1.73,1.82 0.51,0.54 1.23,1.31 1.73,1.84l28.84 31.84 13.7 -105.73c5.42,-29.78 13.16,-67.95 13.16,-102.56l137.58 0c-0.33,16.37 -4.74,31.39 -6.84,49.07 -2.43,20.32 -5.45,24.82 -6.69,49.27 -1.77,34.82 -37.17,243.83 -39.91,284.43l-44.82 335.73c-1.68,14.04 -0.46,35.15 -15.83,35.15 -160.92,0 -114.12,13.41 -114.12,-56.81 -20.47,15.48 -7.92,17.27 -51.26,44.38 -13.26,8.29 -14.83,9.01 -31.87,13.29 -49.09,12.35 -94.96,4.96 -133.58,-32.77l-13.57 -14.97zm480.31 44.97c-32.67,-15.7 -48.66,-55.65 -48.66,-96.56 0,-25.61 13.11,-48.21 24.88,-62.81 46.62,-57.82 139.56,-20.55 139.56,74.18 0,53.56 -53.18,115.31 -115.78,85.19zm-1940.97 -224.83l42.5 -311.84c5.05,-24.5 5.88,-51.32 10.76,-74.95l124.17 0c-0.52,26.68 -9.58,58.49 -10.08,83.32 9.61,-7.94 9.57,-16.04 22.97,-34.69 37.93,-52.72 58.35,-56.76 104.57,-52.42 -15.89,33.9 -50.34,141.95 -50.34,178.01 -20.12,0 -36.56,2.17 -52.21,16.82 -27.52,25.73 -41.49,131.52 -49.28,171.61 -13.7,70.65 -17.9,133.99 -27.95,195.7 -4.8,29.63 -3.14,55.18 -18.21,55.18 -140.37,0 -130.55,10.09 -123.87,-29.7l16.8 -117.64c4.34,-24.24 6.25,-53.46 10.17,-79.4zm-1157.2 557.38c48.29,-24.62 93.48,-21.61 144.5,-6.32 22.5,6.73 42.35,18.95 59.19,31.67 -5.09,11.98 -5.2,21.05 -7.22,37.3l-22.99 106.61c-20.53,-12.26 -42.31,-30.3 -73.84,-30.3 -43.91,0 -69.41,8.87 -98.05,59.76 -31.3,55.66 -47.42,202.23 22.46,249 34.75,23.26 79.41,13.82 112.76,-5.52 7.62,-4.43 1.44,-4.29 13.18,-7.83l-7.2 71.4c-7.96,91.76 -11.8,92.56 -45.48,100.14 -52.63,11.86 -35.29,10.24 -91.63,10.24 -60.19,0 -119.46,-63.49 -140.07,-122.19 -3.12,-8.91 -2.97,-10.36 -6.43,-19.24 -20.41,-52.49 -21.29,-103.03 -21.29,-157.75 0,-31.48 9.63,-96.52 21.28,-127.49 18.59,-49.42 14.63,-50.56 43.81,-98.24l20.79 -29.58c24.19,-26.96 42.19,-44.26 76.23,-61.66zm225.14 216.18l24.66 -184.23c5.39,-50.91 -29.23,-40.7 131.75,-40.7 14.13,0 9.2,13.04 7.33,22.77 -8.64,44.84 -10.1,95.07 -20.48,151.76l-16.11 121.95c-3.1,22.51 -2.62,38.98 -5.35,62.4 -12.02,103.48 83.5,117.91 122.88,17.22 7.37,-18.84 13.37,-34.94 16,-57.71l43.39 -318.39 130.88 0c0,29.76 -4.28,50.43 -7.29,78.88l-29.91 223.78c-11.55,62.91 -16.97,126.94 -24.1,192.46 -3.55,32.59 -12.52,81.85 -12.52,110.84l-120.83 0c0,-36.97 6.71,-51.57 6.71,-87.11 -11.73,4.8 -38.46,68.84 -89.66,91.97 -27.18,12.27 -61.7,13.6 -89.03,3.67 -12.12,-4.4 -12.68,-5.67 -22.11,-12.93 -13.33,-10.29 -22.53,-22.49 -30.63,-37.38 -35.5,-65.23 -30.32,-123.74 -30.32,-196.81 0,-33.79 5.92,-63.75 10.58,-94.1 2.28,-14.86 1.85,-30.81 4.16,-48.34zm421.99 374.75l64.73 -510.95c4.42,-29.71 9.78,-58.79 12,-88.73l114.09 0c0,28.55 -6.71,53.62 -6.71,79.55 12.83,-10.62 39.82,-87.11 97.33,-87.11 30.04,0 19.76,9.31 7.8,39.09 -3.86,9.56 -3.87,12.66 -6.93,22.49 -10.95,35.25 -24.95,82.6 -27.72,120.21 -32.57,0 -43.02,4.62 -56.71,30.66 -11.21,21.31 -7.62,18.27 -13.37,37.96 -3.37,11.5 -6.34,14.62 -9.05,27.66 -2.13,10.23 -2.93,20.56 -4.43,29.07l-36.37 250.58c-3.74,21.29 -3.6,44.04 -7.6,63.38 -31.27,0 -62.76,-0.41 -94.03,0.06 -18.97,0.3 -33.64,6.08 -33.03,-13.92zm350.47 -14.83c-61.24,-48.13 -82.46,-152.74 -82.46,-232.63 0,-85.75 24.2,-189.45 54.33,-241.66 4.89,-8.48 8.33,-15.3 12.89,-23.32 5.55,-9.75 8.9,-11.17 15.67,-20.19 83.19,-110.71 221.58,-98.68 276,-2.43 2.62,4.62 3.61,6.98 6.48,11.61 12.97,20.81 6.74,9.91 15.33,35.73 18.08,54.36 15.55,132.75 8.45,190.85 -2.49,20.26 -9.57,42.12 -9.93,60.77l-251.69 0c0,42.74 -1.4,65.92 26.43,95.16 19.22,20.2 37.41,23.4 70.46,26.84 16.46,1.7 19.45,-0.08 40.73,-0.75 38.26,-1.22 88.28,-32.67 104,-34.14l-20.13 151.49c-11.25,2.96 -20.95,7.79 -31.03,10.42 -11.32,2.99 -21.72,5.7 -30.27,7.51 -52.84,11.2 -119.94,13.04 -168.1,-12.82 -15.52,-8.33 -23.45,-11.67 -37.16,-22.44zm575.31 40.05c-74.52,0 -127.86,-38.28 -168.78,-104.95l-13.54 -26.37c-13.99,-30.25 -29.65,-89.51 -32.31,-130.16 -9.76,-148.75 8.48,-283.58 83.73,-401.29 6.41,-9.99 7.5,-13.99 15.88,-23.75 6.52,-7.58 11.75,-13.74 18.48,-20.79 6.84,-7.14 12.75,-11.72 20.36,-18.7 80.52,-73.72 194.26,-64.99 284.24,-16.28 -1.85,24.98 -6.8,58.25 -9.85,83.55 -2.97,24.45 -9.79,54.35 -10.29,79.31 -16.75,-1.58 -112.23,-81.37 -193.72,-6.55 -104.36,95.81 -123.17,430.71 36,430.71 47.6,0 89.18,-32.4 107.38,-37.89 0,23.13 -4.6,54.17 -7.63,78.51 -1.21,9.82 -4.15,23.01 -5.65,35.28 -4.94,40.73 0.28,54.06 -18.61,62.29 -21.05,9.19 -80.45,17.08 -105.69,17.08zm-124.25 -1162.58c-9.75,-45.05 -6.65,-96.57 -6.65,-144 0,-56.54 24.16,-166.72 48.66,-217.78 9.87,-20.59 18.27,-38.6 30.39,-56.58 22.5,-33.34 51.26,-68.61 82.61,-88.55 34.49,-21.98 28.76,-20.5 69.88,-34.77 6.52,-2.25 6.14,-2.31 15.9,-4.8 12.78,-3.24 24.71,-5.37 36.07,-6.53l42.23 0c32.37,3.35 62.83,14 100.11,26.93l27.21 10.94c0,22.7 -18.08,153.9 -23.49,166.63 -26.53,-20.05 -79.88,-41.65 -124.17,-41.65 -9.34,0 -29,6.58 -38.45,9.62 -54.69,17.66 -95.54,83.67 -111.02,139.83 -5.16,18.73 -14.97,68.76 -14.97,89.15 0,76.52 -5.48,70.62 12.59,133.48 9.4,32.72 31.01,63.7 59.19,77.11 57.52,27.36 112.71,4.09 166.5,-25.04 -0.43,20.79 -5.37,53.11 -8.66,73.57 -17.64,109.74 2.69,97.24 -48.08,108.59 -58.52,13.07 -115.65,20.19 -173.95,-5.14 -34.35,-14.92 -65.32,-41.59 -88.67,-74.16 -34.14,-47.67 -41.58,-82.99 -53.23,-136.85zm285.33 886.11c0,-42.22 7.81,-87.3 13.78,-124.55 5.15,-32.01 21.56,-74.75 35.12,-100.51l25.65 -43.02c28.42,-39.11 63.49,-67.4 110,-80.36 39.45,-11 63.77,-14.43 106.14,-2.32 186.94,53.47 167.9,385.9 92.54,521.93 -20.74,37.44 -39.38,58.78 -73.88,79.47 -23.74,14.22 -52.39,29.61 -81.16,29.61l-64.47 0c-9.41,-1.51 -19.65,-5.18 -41.19,-13.31 -44.91,-16.94 -71.34,-52.51 -92.88,-99.68 -18.22,-39.9 -29.65,-123.71 -29.65,-167.26zm542.81 228.2c-103.36,-103.54 -74.54,-364.64 -2.38,-489.37 29.56,-51.11 79.1,-102.39 137.46,-102.39 86.32,0 99.75,57.28 124.16,75.75 2.41,-32.66 26.86,-180.1 26.86,-208.29l117.46 0c11.23,0 9.54,6.14 8.65,16.4l-27.74 215.78c-2.34,18.07 -4.98,31.82 -6.83,45.32l-61.34 476.13 -110.75 0c-15.17,0 -8,-30.52 -3.34,-53.02 -11.12,3.35 -3.57,-0.64 -17.2,14.69 -50.97,57.37 -131.81,62.28 -185.01,9zm400.19 -228.2c0,-105.96 26.79,-205.25 83.4,-284.6 10.5,-14.72 21.34,-24.2 35.48,-35.72 94.7,-77.18 217.98,-32.9 252.78,59.97 1.21,3.22 1.55,4.83 2.79,8.22l6.31 15.61c15.52,40.81 15.39,117.19 11.48,160.3l-7.63 63.38c-1.8,11.25 -4.54,16.62 -5.39,27.99l-251.68 0c-0.84,41.97 0.78,88.55 46.5,110.37 35.09,16.76 86.93,15.18 122,4.05l73.13 -27.31c-25.14,121.74 0.89,150.53 -51.25,161.83 -14.16,3.07 -20.42,5.22 -30.22,7.56 -19.04,4.56 -37.38,7.42 -54.93,8.6l-36.5 0c-120.98,-8.73 -196.27,-106.92 -196.27,-280.25zm422.86 151.49l0 -26.5 80.54 0 0 26.5 -30.21 0 0 98.47 -20.13 0 0 -98.47 -30.2 0zm87.26 98.47l0 -113.63c0,-16.79 17.99,-11.34 33.54,-11.34l12.71 68.97c2.1,10.46 3.27,10.97 4.07,21.92 0.46,-0.82 0.83,-2.04 1.03,-2.63l2.64 -8.39c0.45,-1.84 2.05,-11.71 2.19,-12.68l10.93 -67.19 30.2 0 0 124.97 -20.13 0 0 -75.75c-1.78,2.87 -1.74,1.75 -3.71,7.2l-9.72 68.55 -23.49 0c-4.55,-22.03 -13.42,-58.59 -13.42,-83.32l-3.37 83.32 -23.47 0z"/>
  <path class="fil2" d="M884.66 778.81c28.59,0 52.32,-26.16 65.71,-50.81 11.94,-21.98 20.89,-63.83 21.55,-96.88 -29.94,-2.81 -52.48,-10.24 -96.1,8.96 -38.19,16.83 -53.24,54.89 -44.7,100.52 7.06,37.78 32.82,38.21 53.54,38.21z"/>
  <path class="fil2" d="M1969.4 419.81c-40.44,13.44 -56.49,66.3 -64.54,105.27l147.66 0 0 -30.3c0,-62.44 -40.26,-89.21 -83.12,-74.97z"/>
  <path class="fil2" d="M3166.69 627.33c-55.36,0 -120.81,17.14 -120.81,90.89 0,54.74 28.14,60.59 57.04,60.59 59.21,0 87.26,-88.73 87.26,-147.69 -10.5,-0.99 -11.92,-3.79 -23.49,-3.79z"/>
  <path class="fil2" d="M3781.89 530.08c-14.76,56.84 -24.69,135.4 -0.09,190.83 14.28,32.22 38.84,35.18 62.78,35.18 16,0 34.18,-14.29 44.74,-25.25l26.87 -41.62c22.69,-51.71 25.71,-90.98 25.71,-148.99 0,-122.42 -93.59,-134.4 -138.7,-61.87l-21.31 51.72z"/>
  <path class="fil2" d="M743.71 1464.29c22.83,0 4.35,-72.45 -4.52,-85.78 -42.11,-63.17 -121.39,3.76 -123,85.78l127.52 0z"/>
  <path class="fil2" d="M2138.6 1394.8c-5.97,11.76 -10.33,23.37 -14.78,36.39 -15.51,45.3 -12.37,33.1 130.06,33.1 0,-32.95 5.14,-67.47 -18.67,-92.56 -9.54,-10.07 -21.41,-17.26 -38.38,-17.26 -25,0 -48.63,21.41 -58.23,40.33z"/>
  <path class="fil2" d="M2998.26 1380.26c-81.05,64.07 -91.17,326.42 3.98,326.42 96.25,0 109.03,-210.77 90.31,-279.92 -16.82,-62.14 -60.7,-73.04 -94.29,-46.5z"/>
  <path class="fil2" d="M3502.28 1362.04c-57.76,0 -88.74,97.37 -93.58,148.13 -4.18,43.75 -6.33,113.05 15.34,148.47 9.91,16.18 23.88,25.31 44.68,25.31 21.96,0 35.97,-8.36 49.05,-20.39 57.53,-52.94 86.85,-301.52 -15.49,-301.52z"/>
  <path class="fil2" d="M3958.68 1354.47c-42.83,0 -60.93,41.02 -72.58,77.2 -13.68,42.46 -27.35,32.62 129.64,32.62 0,-31.11 4.34,-69.43 -18.13,-93.15 -8.44,-8.89 -23.77,-16.67 -38.93,-16.67z"/>
  <path class="fil2" d="M4133.19 812.9c0,56.52 64.1,100.64 104.63,49.91 52.52,-65.74 -26.84,-168.77 -85.51,-100.27 -9.03,10.53 -19.12,31.79 -19.12,50.36zm33.56 41.67l0 -75.76c0,-23.33 51.19,-8.7 56.73,4.59 7.7,18.51 -2.71,25.22 -9.75,37.09 5.17,11.02 9.74,17.18 10.07,34.08 -12.58,0 -24.5,1.53 -26.85,-30.31l-13.42 0 0 30.31 -16.78 0z"/>
  <path class="fil2" d="M4183.53 805.33l13.42 0c10.14,0 9.28,-4.46 10.07,-15.15 -9.88,-2.6 -10.23,-3.78 -23.49,-3.78l0 18.93z"/>
 </g>
</svg>
