<?xml version="1.0" encoding="UTF-8"?>
<!DOCTYPE svg PUBLIC "-//W3C//DTD SVG 1.1//EN" "http://www.w3.org/Graphics/SVG/1.1/DTD/svg11.dtd">
<!-- Creator: CorelDRAW -->
<svg xmlns="http://www.w3.org/2000/svg" xml:space="preserve" width="44mm" height="20mm" version="1.1" style="shape-rendering:geometricPrecision; text-rendering:geometricPrecision; image-rendering:optimizeQuality; fill-rule:evenodd; clip-rule:evenodd"
viewBox="0 0 4400 2000"
 xmlns:xlink="http://www.w3.org/1999/xlink">
 <defs>
  <style type="text/css">
   <![CDATA[
    .str0 {stroke:#2B2B2A;stroke-width:20;stroke-miterlimit:22.9256}
    .str1 {stroke:#2B2B2A;stroke-width:20;stroke-miterlimit:22.9256}
    .fil2 {fill:none}
    .fil3 {fill:white}
    .fil0 {fill:#7688A1}
    .fil1 {fill:#7791C9}
   ]]>
  </style>
 </defs>
 <g id="Layer_x0020_1">
  <metadata id="CorelCorpID_0Corel-Layer"/>
  <path class="fil0 str0" d="M-14315.93 -9294.82l-60.7 0 0 113.95 60.7 0 0 -113.95zm0 -181.18l-60.7 0 0 119.21 60.7 0 0 -119.21zm-60.7 -179.65l0 117.68 60.7 0 0 -117.68 -60.7 0zm-399.29 29.27c105.86,0 191.66,92.96 191.66,207.62 0,114.67 -85.8,207.63 -191.66,207.63 -7.84,0 -15.56,-0.51 -23.15,-1.49l0 137.76c0,78.18 63.97,142.14 142.15,142.14l1051.54 0c78.18,0 142.15,-63.96 142.15,-142.14l0 -683.71c0,-78.18 -63.97,-142.15 -142.15,-142.15l-1051.54 0c-78.18,0 -142.15,63.97 -142.15,142.15l0 133.68c7.59,-0.98 15.31,-1.49 23.15,-1.49zm43.64 469.14c118.06,-16.97 209.14,-126.46 209.14,-258.99 0,-132.53 -91.08,-242.01 -209.14,-258.98l0 -91.26c0,-39.4 32.23,-71.63 71.64,-71.63l284.01 0 0 120.48 60.7 0 0 -120.48 714.27 0c39.41,0 71.64,32.23 71.64,71.63l0 699.51c0,39.4 -32.23,71.64 -71.64,71.64l-714.27 0 0 -123.58 -60.7 0 0 123.58 -284.01 0c-39.41,0 -71.64,-32.24 -71.64,-71.64l0 -90.28z"/>
  <path class="fil0 str0" d="M-12307.5 2724.72l0 -257.62 137.68 0 61.32 0 785.4 0 61.32 0 137.69 0 0 257.62 0 58.23 0 88.68c0,38.69 -31.73,70.36 -70.52,70.36l-279.56 0 -59.74 0 -703.08 0c-38.79,0 -70.51,-31.67 -70.51,-70.36l0 -88.68 0 -58.23zm1000.31 -305.93l-817.21 0 -65.6 0 -117.5 0 0 -91.32 0 -32.46 66.95 0 1049.51 0 66.95 0 0 32.46 0 91.32 -117.51 0 -65.59 0zm242.93 485.15l0 -751.68c-12.78,-42.25 -45.19,-76.22 -86.52,-91.22l-1130.03 0c-41.34,15 -73.75,48.97 -86.53,91.22l0 170.71 0 406.25 0 174.72c12.78,42.26 45.21,76.23 86.56,91.22l1129.97 0c41.35,-14.99 73.77,-48.96 86.55,-91.22zm-59.83 -657.23l-1183.41 0 0 -62.14c0,-38.7 31.72,-70.36 70.51,-70.36l339.3 0 703.08 0c38.79,0 70.52,31.66 70.52,70.36l0 62.14z"/>
  <polygon class="fil0 str0" points="-12156.78,2654.28 -12156.78,2694.25 -12156.78,2702.59 -11625.15,2702.59 -11625.15,2654.28 -12131.13,2654.28 "/>
  <polygon class="fil0 str0" points="-11625.15,2769 -12156.78,2769 -12156.78,2817.31 -11625.15,2817.31 "/>
  <path class="fil0 str0" d="M-11487.74 2672.27l0 127.05c0,7.59 1.67,14.8 4.66,21.29 2.16,4.67 5,8.97 8.39,12.77 9.39,10.5 23.03,17.14 38.14,17.14l132.95 0c28.16,0 51.19,-23.04 51.19,-51.2l0 -80.04 0 -47.01c0,-28.16 -23.03,-51.2 -51.19,-51.2l-11.33 0 -121.62 0c-28.15,0 -51.19,23.04 -51.19,51.2zm58.83 123.91l0 -117.75 120.77 0 0 117.75 -120.77 0z"/>
  <path class="fil0 str0" d="M-10373.68 101.24c50.65,0 96.14,23.04 127.4,59.63 1.44,1.69 2.85,3.41 4.23,5.15 24.38,30.82 39.03,70.35 39.03,113.45 0,98.44 -76.4,178.24 -170.66,178.24 -6.97,0 -13.86,-0.44 -20.61,-1.29l0 118.26c0,54.9 38.12,101.64 90.1,116.82l0 23.06c0,72 59.27,130.92 131.71,130.92l974.34 0c72.44,0 131.71,-58.92 131.71,-130.92l0 -629.69c0,-72.01 -59.27,-130.92 -131.71,-130.92l-11.66 0c-13.97,-46.36 -55.88,-81.57 -106.77,-87.36l-965.97 0c-62.7,7.13 -111.75,58.9 -111.75,121.18l0 114.76c6.75,-0.85 13.64,-1.29 20.61,-1.29zm38.86 402.72c105.12,-14.57 186.22,-108.55 186.22,-222.32 0,-3.13 -0.06,-6.25 -0.18,-9.36 -1.09,-27.66 -6.97,-54.03 -16.81,-78.22 -16.79,-41.3 -45.09,-76.25 -80.69,-100.47 -17.3,-11.77 -36.32,-21.01 -56.59,-27.21 -10.35,-3.16 -21.02,-5.54 -31.95,-7.05l0 -78.34c0,-33.82 28.7,-61.49 63.79,-61.49l252.89 0 54.05 0 636.01 0c25.04,0 46.82,14.09 57.25,34.45 4.18,8.17 6.53,17.35 6.53,27.04l0 36.43 0 564.04c0,33.82 -28.7,61.5 -63.78,61.5l-636.01 0 -54.05 0 -228.14 0 -24.75 0c-12.12,0 -23.48,-3.3 -33.16,-9.02 -18.33,-10.84 -30.63,-30.34 -30.63,-52.48l0 -77.5zm475.61 192.74l527.82 0c69.61,0 126.57,-54.91 126.57,-122.02l0 -557.26 9.67 0c36.63,0 66.6,29.28 66.6,65.07l0 635.36c0,35.78 -29.97,65.07 -66.6,65.07l-664.06 0 0 -86.22zm-387.07 0l330.65 0 0 86.22 -264.05 0c-36.64,0 -66.6,-29.29 -66.6,-65.07l0 -21.15zm212.6 -511.37c-11.61,4.66 -19.78,15.62 -19.78,28.41 0,4.58 1.05,8.92 2.92,12.82l13.38 13.95 117.78 122.79 -25.1 174.1 -1.05 7.26c0,0.19 0,0.38 0,0.57 0,17 14.42,30.78 32.22,30.78 1.36,0 2.7,-0.08 4.01,-0.23l20.14 -10.17 144.43 -72.96 149.21 75.37 14.17 7.16c2.4,0.54 4.91,0.83 7.49,0.83 14.93,0 27.49,-9.71 31.15,-22.88l-3.4 -23.55 -23.97 -166.28 117.47 -122.47 14.26 -14.87c1.7,-3.74 2.64,-7.88 2.64,-12.22 0,-12.71 -8.06,-23.62 -19.56,-28.32l-14.08 -2.43 -167.44 -29 -70.16 -136.57 -5.89 -11.47 -8.76 -17.05c-5.86,-5.77 -14.06,-9.36 -23.14,-9.36 -9.06,0 -17.26,3.58 -23.11,9.34l-8.79 17.1 -5.88 11.44 -70.16 136.57 -167.38 28.99 -13.62 2.35zm221.5 24.23l67.01 -140.72 67.02 140.72 149.15 22.92 -107.74 109.89 25.18 154.89 -133.61 -72.81 -133.6 72.81 25.17 -154.89 -107.74 -109.89 149.16 -22.92z"/>
  <path class="fil0 str0" d="M-12663.98 -168.92l0 328.36 203.86 0 0 -54.47 -147.84 0 0 -273.89 -56.02 0zm-433.63 271.54l268.75 -183.72 -32.54 -44.09 -201.12 138.67c41.66,-197.24 216.73,-345.29 426.38,-345.29 240.68,0 435.79,195.11 435.79,435.79 0,240.68 -195.11,435.79 -435.79,435.79 -9.55,0 -19.02,-0.31 -28.41,-0.91l-1.06 49.55c9.75,0.58 19.57,0.88 29.47,0.88 268.03,0 485.31,-217.28 485.31,-485.31 0,-268.03 -217.28,-485.31 -485.31,-485.31 -224.62,0 -413.59,152.59 -468.92,359.76l-112.22 -187.6 -47.24 30.44 166.91 281.35zm321.09 414.04l-15.95 46.9c20.7,7.04 42.03,12.72 63.88,16.94l9.39 -48.64c-19.61,-3.78 -38.75,-8.88 -57.32,-15.2zm-101.94 -50.42l-27.57 41.15c18.1,12.13 37.06,23.08 56.78,32.73l21.77 -44.49c-17.7,-8.67 -34.72,-18.49 -50.98,-29.39zm-85.66 -75.29l-37.25 32.62c14.1,16.11 29.26,31.28 45.36,45.4l32.65 -37.24c-14.46,-12.68 -28.08,-26.31 -40.76,-40.78zm-63.98 -96.26l-44.52 21.7c9.77,20.03 20.87,39.3 33.2,57.67l41.13 -27.59c-11.07,-16.5 -21.04,-33.8 -29.81,-51.78zm-35.67 -106.32l-48.6 9.54c4.13,21.05 9.62,41.62 16.38,61.6l46.92 -15.86c-6.06,-17.93 -10.99,-36.39 -14.7,-55.28zm-7.23 -55.63c-0.62,-9.51 -0.93,-19.1 -0.93,-28.76l-49.52 0c0,10.75 0.35,21.41 1.04,31.98l49.41 -3.22z"/>
  <g id="_105553611925536">
   <path class="fil1 str1" d="M-18777.84 8018.94c0,24.8 7.49,32.29 32.32,32.29 440.69,0 364.04,49.13 404.84,-165.97 12.71,-67.02 17.73,-125.78 30.59,-193.89l200.15 -1200.94c0,132.46 -2.06,266.45 -0.43,398.7l14.15 394.91c15.34,111.87 8.43,271.05 7.76,401.28l9.91 291.5c-0.75,96.53 -20.78,74.41 281.02,74.41 38.22,0 43.89,-73.13 83.26,-175.14 27.05,-70.1 43.49,-134.9 66.19,-202.96 12.57,-37.69 22.38,-53.61 33.68,-95.52l338.18 -996.85c19.83,-56.97 10.55,-68.55 38.86,-101.1l-207.39 1396.63c-28.67,219.73 -139.57,174.94 379.76,174.94 46.79,0 61.24,-174.89 70.98,-241.23l102.76 -672.35c35.72,-207.55 107.39,-613.97 127.83,-808.75l43.93 -279.03c5.63,-51.45 20.77,-84.77 20.77,-140.71l-678.68 0 -254.6 800.49c-12.25,39.14 -16.95,38.66 -27.86,79.8 -14.49,54.63 -107.65,366.13 -137.67,400.65 0,-215.29 0,-430.57 0,-645.86 0,-220.32 -10.77,-409.82 -10.77,-635.08l-635.59 0 -333.95 2109.78z"/>
   <path class="fil1 str1" d="M-6701.73 7631.43c-76.89,0 -155.7,-8.45 -201.55,-100 -78.94,-157.59 -47.06,-380.83 0.31,-542.42l68.37 -146.96c144.82,-206.17 445.27,-172.12 445.27,175.82 0,164.9 -9.71,276.51 -82.53,423.45l-86.24 118.34c-33.92,31.15 -92.31,71.77 -143.63,71.77zm420.13 -1130.24l-92.57 -90.5c-1.62,-1.5 -3.91,-3.72 -5.54,-5.22 -1.62,-1.51 -3.93,-3.71 -5.56,-5.21 -249.45,-229.25 -588.7,-113.21 -790.55,165.42 -69.96,96.57 -155.41,270.43 -180.37,390.27 -63.83,306.49 -45.76,188.78 -45.76,524.78 0,101.04 54.44,238.08 95.42,324.46l75.72 107.33c1.51,1.62 3.74,3.89 5.27,5.5l43.59 42.55c123.97,107.19 271.19,128.21 428.81,93.12 54.65,-12.17 59.72,-14.21 102.25,-37.76 139.17,-77.07 98.88,-82.18 164.61,-126.16 0,199.61 -150.28,161.46 366.27,161.46 49.39,0 45.44,-59.97 50.83,-99.9l143.87 -954.19c8.8,-115.44 122.43,-709.48 128.14,-808.45 4.01,-69.5 13.68,-82.28 21.45,-140.04 6.75,-50.24 20.94,-92.96 21.98,-139.49l-441.68 0c0,98.38 -24.78,206.84 -42.22,291.5l-43.96 300.53z"/>
   <path class="fil1 str1" d="M-7908.27 10268.66c-66.75,0 -111.64,-25.96 -143.43,-71.96 -69.54,-100.65 -62.65,-297.62 -49.24,-421.96 15.56,-144.29 115.03,-421.04 300.4,-421.04 328.53,0 234.4,706.53 49.71,857 -41.98,34.21 -86.93,57.96 -157.44,57.96zm420.13 -1130.24c-78.39,-52.46 -121.49,-215.29 -398.58,-215.29 -187.31,0 -346.37,145.74 -441.28,291.04 -231.6,354.52 -324.1,1096.65 7.66,1390.9 170.78,151.46 430.28,137.5 593.91,-25.54 43.74,-43.58 19.49,-32.25 55.16,-41.76 -14.92,63.99 -37.94,150.69 10.77,150.69l355.5 0 196.91 -1353.29c5.93,-38.4 14.43,-77.44 21.9,-128.81l89.02 -613.28c2.89,-29.23 8.33,-46.69 -27.74,-46.69l-377.04 0c0,80.17 -78.46,499.23 -86.19,592.03z"/>
   <path class="fil1 str1" d="M-16203.19 7696.02c-66.5,0 -149.21,-1.25 -171.88,-108.62 -27.39,-129.71 20.92,-237.87 143.54,-285.69 139.96,-54.6 212.33,-33.49 308.43,-25.5 -2.09,93.94 -30.81,212.89 -69.15,275.35 -43.01,70.06 -119.14,144.46 -210.94,144.46zm-333.95 -1334.77c0,66.57 -14.91,133.69 -23.29,202.77 -7.21,59.35 -30.57,128.06 -30.57,195.51 113.23,-54.29 633.66,-142.47 717.97,-6.94 43.15,69.35 10.02,115.22 3.8,189.93 -98.39,-22.9 -315.7,-16 -410.75,9.38 -49.77,13.3 -96.33,21.96 -141.85,41.25 -52.05,22.06 -75.04,33.51 -119.7,63.39 -292.94,196.01 -352.68,631.09 -163.74,882.83 141.06,187.94 460.71,176.13 659.97,22.05l89.89 -82.41c-17.82,76.4 -10.78,80.8 -10.78,172.22 419.23,0 359.51,33.19 381.9,-124.31l110.33 -783.19c27.48,-191.69 74.87,-437.75 -15.21,-624.04 -45.8,-94.73 -109.26,-140.4 -197.08,-190.57 -63.28,-36.16 -235.04,-64.75 -323.03,-64.75 -253.5,0 -473.49,92.36 -527.86,96.88z"/>
   <path class="fil1 str1" d="M-9082.48 7696.02c-92.81,0 -183.14,-16.65 -183.14,-172.23 0,-209.64 210.12,-258.34 387.82,-258.34 37.14,0 41.71,7.96 75.41,10.76 0,167.54 -90.04,419.81 -280.09,419.81zm-323.18 -1334.77l-64.64 398.28 167.68 -47.74c131.93,-23.74 371.96,-55.84 496.23,-2.09 80.84,34.97 81.03,99.93 69.31,190.44 -9.47,73.05 -22.78,31.62 -86.86,31.62 -172.72,0 -290.77,-7.26 -454.07,52.2 -243.22,88.56 -407.74,303.26 -407.74,561.36 0,92.08 -3.14,170.86 29.19,261.46l64.1 118.94c102.98,127.77 227.66,169.82 391.1,146.69 260.33,-36.83 280.89,-136.03 366.65,-193.4 -4.68,209.82 -104.41,172.22 355.49,172.22l132.03 -933.73c43.87,-221.17 76.48,-573.15 -125.52,-730.45 -57.75,-44.97 -111.9,-70.76 -181.03,-88.22 -316.27,-79.91 -463.22,-4.78 -751.92,62.42z"/>
   <path class="fil1 str1" d="M-9405.66 10333.25c-305.48,0 -272.99,-745.67 -12.8,-927.75 107.83,-75.45 248.7,-44.45 302.68,132.17 60.07,196.56 19.1,795.58 -289.88,795.58zm75.41 419.8l-207 0c-30.21,-4.32 -63.02,-14.76 -132.17,-37.84 -144.2,-48.15 -229.05,-149.24 -298.19,-283.32 -58.48,-113.4 -95.18,-351.61 -95.18,-475.39 0,-120.01 25.09,-248.17 44.29,-354.03 16.49,-90.97 69.17,-212.47 112.68,-285.67l82.35 -122.24c91.23,-111.19 203.8,-191.6 353.1,-228.44 126.63,-31.25 204.7,-41.04 340.7,-6.6 600.1,151.97 538.99,1096.84 297.07,1483.48 -66.57,106.4 -126.4,167.05 -237.17,225.87 -76.16,40.44 -168.16,84.18 -260.48,84.18z"/>
   <path class="fil1 str1" d="M-12454.31 6888.7l0 86.11 -474 0c25.83,-110.78 77.36,-261.03 207.16,-299.21 137.59,-40.46 266.84,35.62 266.84,213.1zm-947.99 409.04c0,241.93 75.28,507.54 279.97,656.73 43.02,31.35 72.65,43.05 125.57,68.28 238.58,113.75 739.58,32.9 787.48,-17.31 23.81,-24.95 55.84,-381.39 78.15,-427.83 -47.56,3.95 -118.51,42.34 -168.31,57.87 -230.63,71.95 -661.19,90.26 -661.19,-240.86l0 -64.59 861.81 0c9.07,-108.81 53.87,-149.04 53.87,-430.57 0,-207.89 -51.49,-327.43 -144.41,-447.73 -110.57,-143.16 -295.26,-187.36 -491.18,-187.36 -147.68,0 -298.02,91.37 -404.92,187.44l-27.75 26.09c-74.23,76.5 -128.48,172.89 -174.39,267.07 -44.05,90.35 -79.97,245.95 -93.91,347.49 -8.37,60.91 -20.79,137.59 -20.79,205.28z"/>
   <path class="fil1 str1" d="M-14953.56 10010.32c0,207.68 -16.62,373.98 97.33,559.36 26.02,42.35 55.52,77.01 98.35,106.25 30.23,20.64 32.05,24.25 70.93,36.76 87.77,28.26 198.55,24.44 285.81,-10.45 164.34,-65.7 250.14,-247.71 287.84,-261.35 0,100.97 -21.54,142.5 -21.54,247.57l387.81 0c0,-82.42 28.82,-222.42 40.22,-315.03 22.92,-186.23 40.29,-368.22 77.34,-547.04l96.03 -636.01c9.66,-80.87 23.41,-139.66 23.41,-224.19l-420.13 0 -139.31 904.94c-8.43,64.69 -27.68,110.49 -51.32,163.99 -126.45,286.2 -433.05,245.19 -394.44,-48.93 8.74,-66.6 7.22,-113.37 17.12,-177.39l51.73 -346.59c33.32,-161.12 38.01,-303.89 65.74,-431.33 6.03,-27.68 21.83,-64.69 -23.52,-64.69 -516.71,0 -405.63,-29.07 -422.91,115.63l-79.19 523.66c-7.38,49.81 -5.99,95.14 -13.33,137.39 -14.97,86.25 -33.97,171.42 -33.97,267.45z"/>
   <path class="fil1 str1" d="M-18066.85 10010.32c0,87.76 13.56,186.23 -86.28,247.47 -150.4,92.24 -420.79,64.48 -562.6,-30.42 -43.04,-28.8 -49.79,-53.03 -60.96,-2.22 -3.2,14.57 -2.45,30.5 -6.12,49.14 -3.76,19.09 -10.54,38.11 -13.69,51.08l-67.52 320.04 203.61 65.65c185.88,38.61 137.34,41.79 276.51,41.99l58.9 0 10.38 0c114.7,0 320.6,-64.44 409.59,-128.94 209.9,-152.12 263.14,-368.68 278.34,-626.18 3.93,-66.56 -32.65,-247.59 -55.72,-296.4 -62.42,-132.06 -134.2,-202 -260.85,-277.56l-55.74 -30.42c-50.29,-27.21 -131.62,-74.39 -168,-112 -108.4,-112.08 -104.03,-347.65 218.65,-347.65 62.88,0 148.4,11.67 197.04,29.16 24.65,8.87 54.32,18.64 77.66,30.04 34.58,16.89 38.8,27.9 80.8,37.68l51.22 -217.93c9.17,-39.04 14.3,-75.35 21.93,-107.25 9.92,-41.45 22.8,-71.11 23.8,-116.16 -166.71,-38.8 -89.32,-86.11 -517.09,-86.11 -106.95,0 -195.38,24.67 -275.68,58.22 -177.35,74.09 -260.42,193.87 -324.55,364.62 -14.21,37.84 -33.66,92.19 -35.52,136.73 -7.36,176.29 -37.85,375.82 115.84,551.97 48.97,56.12 132.35,110.34 197.27,147.34 74.56,42.5 268.78,137.61 268.78,248.11z"/>
   <path class="fil1 str1" d="M-6335.46 9332.18c48.68,0 97.85,22.11 124.92,47.39 72.18,67.4 58.21,176.31 58.21,264.77 -503.93,0 -460.03,27.95 -416.15,-92.73 37.38,-102.82 95.52,-219.43 233.02,-219.43zm46.95 1420.87l-117.2 0c-388.36,-24.79 -629.98,-303.9 -629.98,-796.55 0,-301.18 85.97,-583.39 267.69,-808.94 33.71,-41.83 68.49,-68.75 113.88,-101.5 304.03,-219.37 699.72,-93.52 811.46,170.44 3.88,9.16 4.97,13.74 8.94,23.36l20.25 44.35c49.81,116.02 49.42,333.12 36.83,455.65l-24.45 180.1c-5.78,32 -14.6,47.29 -17.29,79.6l-807.94 0c-2.66,119.27 2.5,251.67 149.28,313.69 112.65,47.61 279.05,43.13 391.64,11.52l234.7 -77.64c-80.68,346.04 2.91,427.84 -164.49,459.96 -45.45,8.72 -65.57,14.84 -96.98,21.5 -61.15,12.96 -120,21.08 -176.34,24.46z"/>
   <path class="fil1 str1" d="M-16655.64 9644.34l-409.35 0c5.19,-233.14 259.65,-423.39 394.81,-243.81 28.51,37.87 87.83,243.81 14.54,243.81zm-122.57 1108.71l-51.83 0c-50.75,-1.67 -102.73,-8.27 -160.78,-20.29 -108.71,-22.51 -172.97,-43.78 -257.5,-108.69 -85.41,-65.59 -165.66,-169.84 -196.23,-266.78 -43.52,-137.97 -62.12,-214.12 -62.12,-390.03 0,-211.78 33.83,-364.45 100.87,-545.06 12.42,-33.48 18.28,-43.12 33.74,-73.93 32.02,-63.85 79.94,-146.58 126.48,-196.54 37.57,-40.33 67.8,-69.01 112.75,-102.62 208.69,-156.07 529.02,-159.1 707.9,20.25l10.52 11.01c70.79,76.57 77.19,97.52 118.08,183.41 62.17,130.58 50.06,272.75 50.06,412.85 0,116.25 -40.71,215.8 -43.1,322.93l-807.94 0c-4.88,58.53 -5.48,141.08 25.56,200.5 27.03,51.77 69.03,93.83 123.48,113.43 128.36,46.2 260.8,44.44 391.8,11.2 49.22,-12.48 80.88,-17.54 123.56,-38 38.31,-18.36 62.34,-35.49 111.23,-39.56l-54.2 311.83c-1.33,23.99 -9.17,83.61 -17.97,100.45 -26.2,50.21 -119.82,51.99 -182.12,65.6 -74.48,16.29 -138.68,25.95 -202.24,28.04z"/>
   <path class="fil1 str1" d="M-11991.09 9332.18c54.49,0 92.56,20.42 123.25,49.07 76.37,71.32 59.88,169.4 59.88,263.09 -457.18,0 -467.26,34.66 -417.49,-94.07 14.32,-37.03 28.26,-70.03 47.44,-103.47 30.83,-53.76 106.68,-114.62 186.92,-114.62zm-700.22 635.08c0,227.07 68.11,524.37 264.7,661.23 44,30.62 69.44,40.08 119.3,63.78 154.59,73.49 369.96,68.25 539.59,36.39 27.44,-5.14 60.81,-12.86 97.17,-21.31 32.36,-7.51 63.48,-21.24 99.59,-29.65l64.64 -430.57c-50.47,4.2 -211.05,93.56 -333.86,97.04 -68.29,1.94 -77.87,6.97 -130.78,2.11 -106.08,-9.76 -164.45,-18.87 -226.15,-76.28 -89.31,-83.12 -84.84,-149 -84.84,-270.44l807.95 0c1.18,-53.04 23.89,-115.18 31.84,-172.71 22.82,-165.16 30.95,-387.97 -27.1,-542.48 -27.56,-73.36 -7.58,-42.39 -49.18,-101.55 -9.25,-13.14 -12.44,-19.84 -20.84,-33 -174.66,-273.58 -618.9,-307.78 -885.95,6.9 -21.74,25.63 -32.5,29.69 -50.3,57.38 -14.68,22.83 -25.7,42.19 -41.39,66.28 -96.7,148.44 -174.39,443.17 -174.39,686.88z"/>
   <path class="fil1 str1" d="M-11000.01 7028.63c0,134.83 -9.98,281.23 21.31,409.28 37.41,153.08 61.3,253.5 170.9,388.97 74.92,92.6 174.35,168.35 284.61,210.77 187.14,72.01 370.54,51.77 558.37,14.6 163,-32.25 97.73,3.28 154.36,-308.62 10.56,-58.17 26.44,-150.02 27.76,-209.08 -172.61,82.76 -349.81,148.93 -534.41,71.13 -90.44,-38.11 -159.85,-126.16 -190.03,-219.16 -58,-178.67 -40.42,-161.9 -40.42,-379.41 0,-57.93 31.47,-200.13 48.05,-253.39 49.69,-159.6 180.83,-347.22 356.38,-397.39 30.34,-8.67 93.47,-27.37 123.43,-27.37 142.19,0 313.4,61.41 398.59,118.41 17.37,-36.19 75.41,-409.12 75.41,-473.63l-87.37 -31.11c-119.64,-36.74 -217.39,-67.01 -321.31,-76.53l-135.6 0c-36.46,3.31 -74.75,9.34 -115.79,18.59 -31.29,7.05 -30.09,7.22 -50.99,13.64 -132.01,40.54 -113.6,36.33 -224.35,98.76 -100.63,56.71 -192.94,156.96 -265.17,251.71 -38.95,51.1 -65.85,102.32 -97.57,160.85 -78.65,145.14 -156.16,458.26 -156.16,618.98z"/>
   <path class="fil1 str1" d="M-10579.88 10742.29c81.04,0 271.7,-22.41 339.27,-48.52 60.67,-23.44 43.91,-61.3 59.8,-177.05 4.79,-34.88 14.21,-72.38 18.12,-100.3 9.71,-69.19 24.49,-157.4 24.49,-223.11 -58.44,15.59 -191.89,107.64 -344.72,107.64 -510.92,0 -450.56,-951.87 -115.57,-1224.18 261.61,-212.67 568.07,14.12 621.88,18.59 1.58,-70.91 23.49,-155.88 32.99,-225.37 9.84,-71.93 25.73,-166.48 31.65,-237.49 -288.84,-138.48 -653.95,-163.27 -912.44,46.29 -24.42,19.8 -43.4,32.86 -65.31,53.14 -21.64,20.03 -38.41,37.54 -59.36,59.1 -26.91,27.7 -30.39,39.06 -50.94,67.51 -241.56,334.54 -300.1,717.76 -268.8,1140.51 8.56,115.59 58.79,284.01 103.74,369.97l43.45 74.99c131.32,189.48 302.6,298.28 541.75,298.28z"/>
   <path class="fil1 str1" d="M-15298.28 6802.58c0,219.19 28.98,317.55 196.16,460.61 112.43,96.22 413.94,145.72 317.28,343.08 -79.68,162.71 -524.05,34.5 -610.4,14.4 -17.67,36.81 -63.21,334.34 -64.64,398.27 140.2,67.22 557.41,68.53 753.45,20.89 146.74,-35.66 250.29,-131.27 319.65,-261.87 58.38,-109.92 62.12,-354.81 17.57,-493.61 -16.07,-50.07 -46.24,-98.27 -80.17,-135.18l-25.75 -28.09c-47,-47.23 -107.7,-84.23 -167.21,-112.79l-141.45 -73.94c-107.11,-71.93 -57.05,-179.95 -12.93,-211.86 110.64,-79.99 388.83,-10.57 436.26,-15.32 44.92,-4.5 38.6,-8.83 46.54,-51.23l49.81 -337.74c0,-27.64 -86.9,-24.81 -158.22,-35.67 -43.54,-6.62 -138.82,-13.42 -187.14,-17.66 -100.14,-8.79 -284.23,28.06 -353.55,54.64 -53.45,20.49 -88.05,43.01 -131.45,73.17l-73.57 66.43c-1.52,1.6 -3.72,3.91 -5.21,5.56 -72.56,80.54 -125.03,241.98 -125.03,337.91z"/>
   <path class="fil1 str1" d="M-16149.32 9891.91c0,155.6 2.83,299.23 68.34,448.39 11.08,25.23 10.62,29.37 20.66,54.71 66.15,166.82 256.38,347.28 449.63,347.28 180.85,0 125.17,4.61 294.08,-29.08 108.17,-21.57 120.43,-23.83 146.02,-284.66l23.12 -202.95c-37.69,10.06 -17.83,9.71 -42.33,22.29 -107.05,54.95 -250.38,81.78 -361.93,15.67 -224.32,-132.94 -172.57,-549.55 -72.1,-707.7 91.9,-144.66 173.76,-169.87 314.77,-169.87 101.18,0 171.09,51.27 237,86.12l73.79 -303.02c6.46,-46.19 6.83,-72.01 23.16,-106.02 -54.07,-36.18 -117.79,-70.88 -189.98,-90.04 -163.78,-43.47 -308.87,-51.99 -463.81,18.02 -109.32,49.4 -167.09,98.59 -244.76,175.24l-66.69 84.05c-93.69,135.53 -80.99,138.78 -140.68,279.24 -37.4,88.02 -68.29,272.88 -68.29,362.33z"/>
   <path class="fil1 str1" d="M-14242.57 7663.72c0,157.14 30.64,316.65 182.79,387.86 122.67,57.41 338.27,27.49 449.12,-14.78 37.29,-14.22 31.42,-15.36 38.65,-58.26 8.85,-52.56 14.47,-110.65 25.12,-168.66 9.76,-53.2 22.05,-119.2 26.09,-167.69 -62.78,0 -156.64,29.12 -222.46,-14.53 -80.49,-53.38 -34.57,-192.6 -17.28,-278.84 13.62,-67.97 17.9,-136.93 30.5,-206.34 25.22,-138.91 39.14,-275.57 69.19,-404.48l215.46 0c10.56,-126.8 47.23,-268.36 57.23,-386.88 2.88,-34.1 11.82,-40.04 -34.16,-44.36 -48.63,-4.57 -132.07,0.67 -184.66,0.67 23.42,-48.77 38.63,-193.03 53.86,-258.34l-441.68 0 -112.6 694.8c-7.11,38.88 -3.2,70.06 -10.16,108.26l-37.37 188.7c-14.53,134.61 -87.64,554.16 -87.64,622.87z"/>
   <path class="fil1 str1" d="M-11377.05 6544.24c1.57,-70.57 30.63,-161.01 32.32,-236.81l-398.59 0c-15.65,67.13 -18.33,143.38 -34.56,213.04l-136.41 886.3c-12.59,73.73 -18.7,156.82 -32.66,225.71l-53.91 334.39c-21.46,113.02 -52.97,84.36 397.58,84.36 48.4,0 43.05,-72.58 58.52,-156.81 32.21,-175.42 45.7,-355.44 89.7,-556.22 24.98,-113.99 69.88,-414.66 158.18,-487.8 50.24,-41.62 103.02,-47.82 167.6,-47.82 0,-102.48 110.57,-409.57 161.59,-505.91 -148.35,-12.34 -213.94,-0.88 -335.66,148.99 -43.01,52.96 -42.89,76.03 -73.7,98.58z"/>
   <path class="fil1 str1" d="M-7660.5 6544.24c0,-91.71 32.32,-154.23 32.32,-236.81l-398.59 0 -212.73 1359.01c-18.66,143 -45.81,263.61 -45.81,384.79l409.36 0c38.92,0 31.61,-26.58 33.15,-63.75l100.5 -653.08c11.07,-62.24 27.98,-110.93 38.57,-176.73 14.26,-88.57 59,-238.69 126.15,-304.52 44.93,-44.04 81.16,-50.57 164.85,-50.57 2.27,-101.6 68.92,-285.76 106.06,-378.41 18.87,-47.07 43.52,-71.91 44.76,-127.5 -72.41,-6.02 -53.55,-14.65 -135.92,4.05 -93.55,21.25 -124.78,73.6 -177.43,134.94l-85.24 108.58z"/>
   <path class="fil1 str1" d="M-12960.63 9192.24c0,-73.68 21.55,-144.94 21.55,-226.05l-366.27 0c-7.09,85.09 -24.29,167.69 -38.49,252.18l-207.81 1452.24c-1.9,56.86 45.14,40.4 106.06,39.58 100.32,-1.36 201.42,-0.2 301.83,-0.2 12.81,-54.96 12.37,-119.65 24.4,-180.14l116.76 -712.17c4.82,-24.26 7.35,-53.57 14.19,-82.7 8.71,-37.05 18.25,-45.89 29.06,-78.6 18.49,-55.96 6.96,-47.3 42.9,-107.84 43.97,-74.07 77.51,-87.19 182.05,-87.19 8.9,-106.9 53.84,-241.48 89.02,-341.63 9.81,-27.95 9.86,-36.77 22.19,-63.94 38.44,-84.65 71.45,-111.12 -25.03,-111.12 -184.58,0 -271.22,217.43 -312.41,247.58z"/>
   <path class="fil1 str1" d="M-5775.29 7792.89c0,-52.78 32.4,-113.22 61.39,-143.18 188.34,-194.66 443.04,98.2 274.47,285.03 -130.11,144.2 -335.86,18.8 -335.86,-141.85zm-64.63 -21.52c0,116.29 51.36,229.82 156.21,274.47 200.96,85.58 371.64,-89.94 371.64,-242.18 0,-269.24 -298.31,-375.15 -447.98,-210.82 -37.79,41.5 -79.87,105.75 -79.87,178.53z"/>
   <path class="fil1 str1" d="M-5398.25 10344.01l0 322.93 75.41 0 10.77 -236.82c0,70.3 28.49,174.17 43.1,236.82l75.4 0 31.22 -194.86c6.28,-15.45 6.19,-12.26 11.88,-20.43l0 215.29 64.63 0 0 -355.22 -96.95 0 -35.07 191.01c-0.45,2.75 -5.6,30.81 -7.04,36.02l-8.47 23.84c-0.64,1.69 -1.83,5.17 -3.29,7.47 -2.59,-31.11 -6.34,-32.57 -13.07,-62.29l-40.79 -196.05c-49.92,0 -107.73,-15.46 -107.73,32.29z"/>
   <polygon class="fil1 str1" points="-5678.33,10387.07 -5581.38,10387.07 -5581.38,10666.94 -5516.74,10666.94 -5516.74,10387.07 -5419.79,10387.07 -5419.79,10311.72 -5678.33,10311.72 "/>
   <path class="fil1 str1" d="M-5570.61 7771.37l-43.09 0 0 -53.83c42.53,0 43.71,3.39 75.41,10.77 -2.53,30.39 0.25,43.06 -32.32,43.06zm-96.95 -75.35l0 215.28 53.86 0 0 -86.12 43.09 0c7.54,90.49 45.8,86.12 86.18,86.12 -1.07,-48.01 -15.71,-65.52 -32.31,-96.88 22.56,-33.68 56.01,-52.79 31.28,-105.39 -17.76,-37.76 -182.1,-79.33 -182.1,-13.01z"/>
  </g>
  <rect class="fil2 str0" x="-10453.61" y="-228.23" width="1453.15" height="1152.66"/>
  <rect class="fil3" x="-68.55" y="-48.68" width="4457.5" height="2051.86"/>
  <path class="fil3" d="M482.39 1337.83l-371.19 -1015.96 1957.02 -87.54 262.45 576.3 -202.08 276.62 2.52 -381.91 -248.83 0 -2.52 522.62c0,0 0,0 -5.76,-3.43 -5.77,-3.45 -17.27,-10.36 -27.28,-15.38 -10.01,-5 -18.55,-8.15 -26.59,-10.51 -8.03,-2.4 -15.66,-3.95 -21.97,-4.27 -6.35,-0.35 -11.44,0.61 -16.55,1.57l0 -68.13c-39.38,38.43 -99.06,62.91 -165.88,62.91 -118.62,0 -214.76,-77.22 -214.76,-172.48 0,-95.29 96.14,-172.52 214.76,-172.52 61.06,0 116.21,20.49 155.29,53.31l0 -169.71c-58.16,-24.29 -124.49,-38.06 -194.87,-38.06 -230.44,0 -417.29,147.46 -417.29,329.34 0,181.85 186.85,329.33 417.29,329.33 20.19,0 40.02,-1.12 59.49,-3.33 3.89,11.01 7.76,22.01 12.55,34.59 4.78,12.62 10.47,26.83 16.47,39.43 5.98,12.61 12.29,23.66 18.72,32.84 6.43,9.15 12.96,16.43 19.47,23.74l-1044.76 341.46 -175.7 -480.83zm3906.56 -1386.51l-4457.5 0 0 2051.86 4457.5 0 0 -2051.86zm-2248.59 1266.26c40.4,-63.95 105.13,-165.87 156.26,-239.84 51.12,-74 88.7,-120.11 120.26,-156.22 31.57,-36.14 57.12,-62.33 76.08,-80.79 18.94,-18.43 31.26,-29.18 43.54,-38.18 12.34,-8.99 24.65,-16.27 41.97,-24.6 17.39,-8.35 39.78,-17.86 59.86,-24.3 20.02,-6.49 37.7,-9.95 54.75,-11.99 17.05,-2.07 33.45,-2.7 44.51,-0.95 11.03,1.74 16.7,5.83 19.56,8.18 2.83,2.37 2.83,3.03 1.89,5.05 -0.93,2.08 -2.81,5.53 -12.63,14.07 -9.76,8.52 -27.43,22.09 -43.72,35.66 -16.21,13.56 -31.05,27.13 -53,50.16 -21.95,23.05 -50.99,55.54 -71.36,80.8 -20.36,25.23 -32,43.21 -52.86,71.62 -20.84,28.4 -50.82,67.23 -71.19,96.07 -20.35,28.88 -31.09,47.84 -48.11,77.35 -17.06,29.5 -40.45,69.57 -66.63,114.55 -26.2,44.94 -55.23,94.81 -74.83,129.66 -19.54,34.89 -29.65,54.78 -45.11,82.22 -15.47,27.47 -36.3,62.48 -55.08,94.2 -18.78,31.72 -35.55,60.11 -46.73,78.25 -11.2,18.16 -16.9,26.04 -22.88,33.16 -6,7.08 -12.32,13.38 -20.68,18.45 -8.37,5.04 -18.76,8.83 -31.08,11.54 -12.34,2.65 -26.53,4.23 -39.49,4.08 -12.96,-0.18 -24.6,-2.07 -36.57,-5.05 -12.02,-2.99 -24.33,-7.12 -49.14,-28.1 -24.73,-20.98 -61.99,-58.83 -88.34,-87.99 -26.37,-29.2 -41.85,-49.65 -56.66,-69.4 -14.85,-19.73 -29.03,-38.69 -39.49,-52.72 -10.39,-14.09 -17.04,-23.24 -21.28,-31.44 -4.27,-8.21 -6.16,-15.47 -7.1,-23.04 -0.98,-7.56 -0.98,-15.45 -0.98,-21.44 0,-6.01 0,-10.12 1.92,-15.18 1.89,-5.02 5.69,-11.03 10.4,-17.04 4.72,-5.96 10.42,-11.98 17.19,-17.04 6.79,-5.04 14.7,-9.15 23.55,-12.92 8.83,-3.78 18.63,-7.24 26.82,-8.68 8.21,-1.42 14.83,-0.78 20.49,0.17 5.71,0.94 10.44,2.2 18.33,6.79 7.89,4.57 18.94,12.44 30.3,20.8 11.39,8.37 23.08,17.22 36.77,28.57 13.75,11.37 29.52,25.24 41.05,35.82 11.52,10.56 18.77,17.83 27.48,27.45 8.69,9.63 18.79,21.61 26.2,30.27 7.42,8.7 12.12,14.04 16.55,16.75 4.42,2.67 8.52,2.67 12.96,-0.97 4.42,-3.61 9.14,-10.86 18.15,-26.16 9,-15.33 22.25,-38.66 36.94,-63.26 14.66,-24.63 30.75,-50.5 71.16,-114.39zm244.92 36.56l83.24 -140.77 45.05 98.88 -128.29 41.89zm510.44 -69.67c-36.01,-6.96 -63.27,-40.49 -63.27,-80.75 0,-45.34 34.56,-82.07 77.23,-82.07 32.12,0 59.68,20.85 71.31,50.54 -12.47,3.99 -24.91,8.08 -37.38,12.1 -6.45,-14.42 -19.51,-24.27 -34.58,-24.27 -21.49,0 -38.92,20.04 -38.92,44.75 0,24.73 17.43,44.77 38.92,44.77 17.51,0 32.34,-13.32 37.2,-31.64 11.65,5.63 23.28,11.29 34.91,16.94 -9.82,25.49 -31.4,44.55 -57.52,49.63l-27.9 0zm170.13 0c-35.97,-6.96 -63.19,-40.41 -63.19,-80.6 0,-45.26 34.48,-81.93 77.07,-81.93 42.58,0 77.12,36.67 77.12,81.93 0,40.19 -27.23,73.64 -63.18,80.6l-27.82 0zm110.99 -0.95l0 -161.62 37.96 0 22.92 0c8.99,34.52 17.85,68.46 22.37,85.71 4.64,17.82 4.64,17.82 4.64,17.82 6.8,-34.51 13.63,-69.01 20.45,-103.53l21.58 0 37.97 0 0 161.62 -96.54 0 -71.35 0zm199.86 -0.68l0 -161.8 47.96 0 24.19 0.02c29.57,0 53.76,24.18 53.76,53.75 0,29.56 -24.19,53.76 -53.76,53.76l-24.19 0 0 54.27 -47.96 0zm153.91 1.63l0 -164.6 2 0 43.97 0 0 116.95c24.63,0 49.28,0 73.93,0l0 47.65 -119.9 0zm143.88 0l0 -162.57 47.96 0 0 162.57 -47.96 0zm64.61 0c19.91,-54.77 39.77,-109.53 59.7,-164.32l45.62 0c18.37,54.79 36.76,109.55 55.15,164.32l-40.28 0c-3.43,-10.08 -6.84,-20.1 -10.13,-29.67l-51.28 0c-3.03,9.62 -6.24,19.59 -9.42,29.67l-49.36 0zm-907.57 -245.07c-1.3,-0.14 -1.98,-0.14 -2.2,-82.11 -0.21,-81.93 0,-245.84 0.17,-327.69 0.17,-81.84 0.28,-81.6 6.75,-81.68 6.45,-0.06 19.28,-0.37 64.64,-0.06 45.39,0.34 123.32,1.32 170.51,3.62 47.16,2.29 63.6,5.92 78.41,10.19 14.79,4.28 27.94,9.17 41.9,19.03 13.98,9.87 28.78,24.69 42.09,41.93 13.33,17.28 25.13,36.96 33.7,59.17 8.57,22.2 13.8,46.83 17.24,70.31 3.47,23.55 5.13,45.87 3.8,69.35 -1.32,23.55 -5.57,48.18 -12.33,70.07 -6.75,21.83 -15.95,40.88 -25.47,56.84 -9.53,15.93 -19.41,28.76 -31.1,39.61 -11.67,10.83 -25.13,19.7 -40.75,27.93 -15.61,8.22 -33.37,15.77 -44.35,19.72 -11.05,3.94 -15.33,4.29 -63.8,4.42 -48.51,0.19 -141.24,0.19 -188.56,0 -47.36,-0.13 -49.34,-0.48 -50.65,-0.65zm666.61 -208.08c-19.43,-4.91 -34.57,-8.18 -48.89,-13.51 -14.34,-5.33 -27.82,-12.69 -40.11,-20.04 -12.26,-7.35 -23.32,-14.73 -32.11,-24.33 -8.8,-9.63 -15.35,-21.5 -20.87,-33.15 -5.53,-11.66 -10.03,-23.1 -12.28,-34.78 -2.25,-11.65 -2.25,-23.51 -0.61,-35.56 1.64,-12.08 4.91,-24.33 9.63,-36 4.69,-11.66 10.83,-22.71 18.82,-32.1 7.97,-9.42 17.79,-17.18 29.27,-23.94 11.44,-6.76 24.55,-12.48 37.42,-16.77 12.91,-4.28 25.57,-7.13 40.3,-9.81 14.73,-2.66 31.51,-5.11 48.69,-6.14 17.18,-1.02 34.78,-0.61 54.81,1.62 20.08,2.28 42.56,6.35 61.2,11.45 18.58,5.12 33.32,11.27 45.79,20.27 12.5,9 22.75,20.86 31.32,32.92 8.58,12.08 15.53,24.33 20.25,36.6 4.71,12.27 7.16,24.55 8.4,31.1 1.22,6.55 1.22,7.37 -9.01,7.57 -10.21,0.2 -30.67,-0.2 -51.33,0 -20.69,0.2 -41.54,1.02 -54.86,1.84 -13.29,0.82 -19.01,1.61 -22.29,-0.2 -3.27,-1.84 -4.07,-6.36 -5.33,-11.47 -1.22,-5.13 -2.85,-10.85 -6.55,-16.95 -3.66,-6.13 -9.38,-12.72 -15.72,-17.01 -6.36,-4.28 -13.32,-6.3 -21.9,-7.75 -8.62,-1.43 -18.82,-2.24 -27.43,-2.05 -8.57,0.2 -15.53,1.44 -22.08,2.48 -6.56,1.02 -12.67,1.81 -17.99,5.49 -5.33,3.67 -9.83,10.22 -12.47,16.38 -2.68,6.13 -3.5,11.84 -1.86,18.17 1.61,6.35 5.74,13.3 12.46,18.86 6.75,5.52 16.18,9.57 28.24,13.3 12.07,3.66 26.81,6.9 42.96,10.6 16.18,3.68 33.76,7.78 52.99,13.3 19.21,5.52 40.1,12.46 57.3,20.04 17.19,7.59 30.67,15.74 42.53,24.74 11.87,9.01 22.11,18.83 30.27,31.09 8.18,12.28 14.33,26.99 17.63,41.94 3.26,14.92 3.65,30.07 2.65,44.98 -1.02,14.92 -3.48,29.64 -9.01,44.4 -5.53,14.7 -14.1,29.44 -25.18,43.55 -11.04,14.12 -24.54,27.6 -39.27,37.21 -14.72,9.64 -30.7,15.35 -45.63,19.45 -14.89,4.1 -28.84,6.54 -43.97,7.97 -15.12,1.45 -31.48,1.83 -46.01,2.24 -14.55,0.44 -27.22,0.81 -43.61,0 -16.36,-0.79 -36.39,-2.85 -51.71,-5.12 -15.39,-2.23 -26.01,-4.67 -38.08,-10.84 -12.1,-6.13 -25.59,-15.92 -35.4,-24.34 -9.82,-8.36 -15.96,-15.32 -22.7,-23.09 -6.76,-7.79 -14.12,-16.36 -20.88,-29.87 -6.77,-13.49 -12.89,-31.92 -16.15,-44.78 -3.29,-12.9 -3.68,-20.23 -3.68,-24.54 0,-4.31 0.39,-5.52 13.48,-6.75 13.11,-1.24 38.88,-2.46 62.22,-3.69 23.31,-1.22 44.2,-2.44 55.02,-3.06 10.85,-0.62 11.65,-0.62 12.87,3.49 1.22,4.09 2.89,12.25 5.75,21.88 2.87,9.59 6.93,20.65 13.91,29.43 6.95,8.79 16.76,15.35 29.23,19.45 12.51,4.08 27.64,5.72 41.34,4.69 13.72,-1.03 25.98,-4.69 36.62,-11.45 10.66,-6.75 19.65,-16.59 23.31,-26.79 3.69,-10.23 2.05,-20.87 -1.83,-29.65 -3.9,-8.79 -10.04,-15.77 -19.23,-21.29 -9.21,-5.52 -21.46,-9.6 -39.47,-14.93 -18.02,-5.31 -41.74,-11.87 -61.18,-16.75zm361.55 -57.88c-8.81,-9.63 -15.39,-21.5 -20.88,-33.15 -5.53,-11.66 -10.03,-23.1 -12.29,-34.78 -2.24,-11.65 -2.24,-23.51 -0.59,-35.56 1.63,-12.08 4.89,-24.33 9.58,-36 4.74,-11.66 10.87,-22.71 18.86,-32.1 7.97,-9.42 17.8,-17.18 29.24,-23.94 11.45,-6.76 24.53,-12.48 37.44,-16.77 12.87,-4.28 25.56,-7.13 40.31,-9.81 14.73,-2.66 31.5,-5.11 48.69,-6.14 17.19,-1.02 34.75,-0.61 54.84,1.62 20.01,2.28 42.53,6.35 61.12,11.45 18.63,5.12 33.4,11.27 45.87,20.27 12.46,9 22.68,20.86 31.3,32.92 8.57,12.08 15.53,24.33 20.23,36.6 4.71,12.27 7.15,24.55 8.4,31.1 1.24,6.55 1.24,7.37 -9.01,7.57 -10.25,0.2 -30.71,-0.2 -51.35,0 -20.66,0.2 -41.55,1.02 -54.82,1.84 -13.3,0.82 -19.05,1.61 -22.3,-0.2 -3.3,-1.84 -4.1,-6.36 -5.34,-11.47 -1.22,-5.13 -2.85,-10.85 -6.54,-16.95 -3.67,-6.13 -9.38,-12.72 -15.75,-17.01 -6.34,-4.28 -13.28,-6.3 -21.9,-7.75 -8.59,-1.43 -18.79,-2.24 -27.36,-2.05 -8.62,0.2 -15.57,1.44 -22.11,2.48 -6.57,1.02 -12.72,1.81 -18,5.49 -5.33,3.67 -9.85,10.22 -12.52,16.38 -2.66,6.13 -3.45,11.84 -1.82,18.17 1.67,6.35 5.72,13.3 12.47,18.86 6.75,5.52 16.14,9.57 28.23,13.3 12.08,3.66 26.8,6.9 42.98,10.6 16.16,3.68 33.75,7.78 52.97,13.3 19.22,5.52 40.11,12.46 57.31,20.04 17.14,7.59 30.66,15.74 42.54,24.74 11.86,9.01 22.11,18.83 30.27,31.09 8.2,12.28 14.33,26.99 17.57,41.94 3.31,14.92 3.7,30.07 2.67,44.98 -1.03,14.92 -3.47,29.64 -9,44.4 -5.51,14.7 -14.13,29.44 -25.16,43.55 -11.06,14.12 -24.54,27.6 -39.28,37.21 -14.71,9.64 -30.68,15.35 -45.59,19.45 -14.97,4.1 -28.86,6.54 -43.99,7.97 -15.18,1.45 -31.54,1.83 -46.06,2.24 -14.51,0.44 -27.22,0.81 -43.57,0 -16.35,-0.79 -36.43,-2.85 -51.75,-5.12 -15.34,-2.23 -25.98,-4.67 -38.04,-10.84 -12.09,-6.13 -25.59,-15.92 -35.39,-24.34 -9.83,-8.36 -15.98,-15.32 -22.73,-23.09 -6.73,-7.79 -14.1,-16.36 -20.86,-29.87 -6.75,-13.49 -12.88,-31.92 -16.18,-44.78 -3.25,-12.9 -3.66,-20.23 -3.66,-24.54 0,-4.31 0.41,-5.52 13.5,-6.75 13.1,-1.24 38.88,-2.46 62.17,-3.69 23.33,-1.22 44.2,-2.44 55.06,-3.06 10.81,-0.62 11.65,-0.62 12.87,3.49 1.23,4.09 2.89,12.25 5.72,21.88 2.86,9.59 6.96,20.65 13.94,29.43 6.95,8.79 16.76,15.35 29.24,19.45 12.46,4.08 27.64,5.72 41.32,4.69 13.71,-1.03 26,-4.69 36.64,-11.45 10.62,-6.75 19.61,-16.59 23.31,-26.79 3.69,-10.23 2.05,-20.87 -1.84,-29.65 -3.88,-8.79 -10.01,-15.77 -19.23,-21.29 -9.2,-5.52 -21.47,-9.6 -39.46,-14.93 -18.05,-5.31 -41.76,-11.87 -61.2,-16.75 -19.42,-4.91 -34.56,-8.18 -48.87,-13.51 -14.34,-5.33 -27.84,-12.69 -40.12,-20.04 -12.29,-7.35 -23.31,-14.73 -32.1,-24.33zm62.2 503.35l0 -147.9 43.98 0 1.99 0c18.81,25.15 37.63,50.3 56.4,75.43l0 -75.43 43.98 0 0 147.9 0 7.68 -43.98 0 0 -7.68 -6.69 0c-17.26,-24.22 -34.47,-48.39 -51.7,-72.6l0 72.6 0 7.68 -43.98 0 0 -7.68zm210.33 1.97l0 -116.29 -47.96 0 0 -35.57 47.96 0 49.95 0 45.84 0 0 35.57 -45.84 0 0 116.29 -49.95 0z"/>
  <path class="fil3" d="M489.82 707.84l-7.43 629.99 251.25 0.71 1.09 -195.62 173.43 -1.1c115.26,-20.03 202.11,-108.61 202.11,-214.82 0,-119.71 -110.24,-216.97 -247.17,-219.08 -1.49,0 -2.98,-0.02 -4.51,-0.02l-368.77 -0.06zm254.15 300.21l0.04 -171.1 34 0c63.62,0 115.22,38.33 115.22,85.58 0,45.97 -48.74,83.41 -109.82,85.52l-10.82 0 -28.62 0z"/>
  <path class="fil3" d="M2003.28 379.35c-79.94,0 -144.73,58.11 -144.73,129.83 0,71.69 64.79,129.78 144.73,129.78 79.93,0 144.72,-58.09 144.72,-129.78 0,-71.72 -64.79,-129.83 -144.72,-129.83z"/>
  <path class="fil3" d="M2978.75 666.9c-0.13,42.71 -0.13,97.57 -0.13,125.94 0,28.34 0,30.17 0,31.38 0,1.2 0,1.73 13.71,2.15 13.73,0.38 41.14,0.66 58.62,0.38 17.41,-0.25 24.86,-1.05 32.48,-4.1 7.6,-3.1 15.29,-8.4 21.98,-17.86 6.65,-9.44 12.23,-23.01 16.1,-35.55 3.87,-12.49 5.98,-23.93 6.91,-42.98 0.93,-19.03 0.7,-45.67 -1.31,-67.08 -2.02,-21.43 -5.74,-37.7 -12.66,-51.27 -6.93,-13.56 -17.04,-24.49 -26.48,-31.68 -9.47,-7.19 -18.25,-10.65 -25.83,-12.37 -7.61,-1.76 -14,-1.76 -25.03,-1.76 -11.09,0 -26.8,0 -36.92,0.16 -10.09,0.13 -14.65,0.39 -17.15,0.54 -2.55,0.13 -3.1,0.13 -3.48,15.42 -0.4,15.32 -0.65,45.95 -0.81,88.68z"/>
  <path class="fil3" d="M3079.08 1060.23c-21.43,0 -38.85,20.04 -38.85,44.7 0,24.7 17.42,44.7 38.85,44.7 21.46,0 38.85,-20 38.85,-44.7 0,-24.66 -17.39,-44.7 -38.85,-44.7z"/>
  <path class="fil3" d="M3423.86 1056.58l0 38.86 0.8 0 22.1 0c10.7,0 19.48,-8.75 19.48,-19.43 0,-10.7 -8.78,-19.43 -19.48,-19.43l-22.1 0 -0.8 0z"/>
  <path class="fil3" d="M3247.43 1181.11c-10.89,-34.46 -21.74,-68.92 -32.63,-103.41l0 103.41 32.63 0z"/>
  <path class="fil3" d="M3306.76 1083.56c-8.37,32.51 -16.74,65.03 -25.08,97.55l25.08 0 0 -97.55z"/>
  <path class="fil3" d="M3817.2 1093.72c-2.19,6.9 -5.11,16.21 -8.57,27.09l28.9 0c-3.63,-10.5 -6.71,-19.51 -8.99,-26.15 -4.19,-12.27 -5.61,-16.47 -6.11,-17.89 -0.75,2.56 -2.27,7.48 -5.23,16.95z"/>
 </g>
</svg>
