<?xml version="1.0" encoding="UTF-8"?>
<!DOCTYPE svg PUBLIC "-//W3C//DTD SVG 1.1//EN" "http://www.w3.org/Graphics/SVG/1.1/DTD/svg11.dtd">
<!-- Creator: CorelDRAW -->
<svg xmlns="http://www.w3.org/2000/svg" xml:space="preserve" width="44mm" height="20mm" version="1.1" style="shape-rendering:geometricPrecision; text-rendering:geometricPrecision; image-rendering:optimizeQuality; fill-rule:evenodd; clip-rule:evenodd"
viewBox="0 0 4400 2000"
 xmlns:xlink="http://www.w3.org/1999/xlink">
 <defs>
  <style type="text/css">
   <![CDATA[
    .str0 {stroke:#2B2B2A;stroke-width:20;stroke-miterlimit:22.9256}
    .str1 {stroke:#90A0B7;stroke-width:20;stroke-miterlimit:22.9256}
    .fil3 {fill:none}
    .fil4 {fill:none;fill-rule:nonzero}
    .fil0 {fill:#7688A1}
    .fil2 {fill:#90A0B7}
    .fil1 {fill:#90A0B7}
   ]]>
  </style>
 </defs>
 <g id="Layer_x0020_1">
  <metadata id="CorelCorpID_0Corel-Layer"/>
  <path class="fil0 str0" d="M-1484.53 2260.19l-60.7 0 0 113.95 60.7 0 0 -113.95zm0 -181.18l-60.7 0 0 119.21 60.7 0 0 -119.21zm-60.7 -179.65l0 117.68 60.7 0 0 -117.68 -60.7 0zm-399.29 29.27c105.86,0 191.66,92.96 191.66,207.62 0,114.67 -85.8,207.63 -191.66,207.63 -7.84,0 -15.56,-0.51 -23.15,-1.49l0 137.76c0,78.18 63.97,142.14 142.15,142.14l1051.54 0c78.18,0 142.15,-63.96 142.15,-142.14l0 -683.71c0,-78.18 -63.97,-142.15 -142.15,-142.15l-1051.54 0c-78.18,0 -142.15,63.97 -142.15,142.15l0 133.68c7.59,-0.98 15.31,-1.49 23.15,-1.49zm43.64 469.14c118.06,-16.97 209.14,-126.46 209.14,-258.99 0,-132.53 -91.08,-242.01 -209.14,-258.98l0 -91.26c0,-39.4 32.23,-71.63 71.64,-71.63l284.01 0 0 120.48 60.7 0 0 -120.48 714.27 0c39.41,0 71.64,32.23 71.64,71.63l0 699.51c0,39.4 -32.23,71.64 -71.64,71.64l-714.27 0 0 -123.58 -60.7 0 0 123.58 -284.01 0c-39.41,0 -71.64,-32.24 -71.64,-71.64l0 -90.28z"/>
  <path class="fil0 str0" d="M-1917.33 -311.41l0 -257.62 137.68 0 61.32 0 785.4 0 61.32 0 137.69 0 0 257.62 0 58.23 0 88.68c0,38.69 -31.73,70.36 -70.52,70.36l-279.56 0 -59.74 0 -703.08 0c-38.79,0 -70.51,-31.67 -70.51,-70.36l0 -88.68 0 -58.23zm1000.31 -305.93l-817.21 0 -65.6 0 -117.5 0 0 -91.32 0 -32.46 66.95 0 1049.51 0 66.95 0 0 32.46 0 91.32 -117.51 0 -65.59 0zm242.93 485.15l0 -751.68c-12.78,-42.25 -45.19,-76.22 -86.52,-91.22l-1130.03 0c-41.34,15 -73.75,48.97 -86.53,91.22l0 170.71 0 406.25 0 174.72c12.78,42.26 45.21,76.23 86.56,91.22l1129.97 0c41.35,-14.99 73.77,-48.96 86.55,-91.22zm-59.83 -657.23l-1183.41 0 0 -62.14c0,-38.7 31.72,-70.36 70.51,-70.36l339.3 0 703.08 0c38.79,0 70.52,31.66 70.52,70.36l0 62.14z"/>
  <polygon class="fil0 str0" points="-1766.61,-381.85 -1766.61,-341.88 -1766.61,-333.54 -1234.98,-333.54 -1234.98,-381.85 -1740.96,-381.85 "/>
  <polygon class="fil0 str0" points="-1234.98,-267.13 -1766.61,-267.13 -1766.61,-218.82 -1234.98,-218.82 "/>
  <path class="fil0 str0" d="M-1097.57 -363.86l0 127.05c0,7.59 1.67,14.8 4.66,21.29 2.16,4.67 5,8.97 8.39,12.77 9.39,10.5 23.03,17.14 38.14,17.14l132.95 0c28.16,0 51.19,-23.04 51.19,-51.2l0 -80.04 0 -47.01c0,-28.16 -23.03,-51.2 -51.19,-51.2l-11.33 0 -121.62 0c-28.15,0 -51.19,23.04 -51.19,51.2zm58.83 123.91l0 -117.75 120.77 0 0 117.75 -120.77 0z"/>
  <path class="fil0 str0" d="M-1905.07 544.62c50.65,0 96.14,23.04 127.4,59.63 1.44,1.69 2.85,3.41 4.23,5.15 24.38,30.82 39.03,70.35 39.03,113.45 0,98.44 -76.4,178.24 -170.66,178.24 -6.97,0 -13.86,-0.44 -20.61,-1.29l0 118.26c0,54.9 38.12,101.64 90.1,116.82l0 23.06c0,72 59.27,130.92 131.71,130.92l974.34 0c72.44,0 131.71,-58.92 131.71,-130.92l0 -629.69c0,-72.01 -59.27,-130.92 -131.71,-130.92l-11.66 0c-13.97,-46.36 -55.88,-81.57 -106.77,-87.36l-965.97 0c-62.7,7.13 -111.75,58.9 -111.75,121.18l0 114.76c6.75,-0.85 13.64,-1.29 20.61,-1.29zm38.86 402.72c105.12,-14.57 186.22,-108.55 186.22,-222.32 0,-3.13 -0.06,-6.25 -0.18,-9.36 -1.09,-27.66 -6.97,-54.03 -16.81,-78.22 -16.79,-41.3 -45.09,-76.25 -80.69,-100.47 -17.3,-11.77 -36.32,-21.01 -56.59,-27.21 -10.35,-3.16 -21.02,-5.54 -31.95,-7.05l0 -78.34c0,-33.82 28.7,-61.49 63.79,-61.49l252.89 0 54.05 0 636.01 0c25.04,0 46.82,14.09 57.25,34.45 4.18,8.17 6.53,17.35 6.53,27.04l0 36.43 0 564.04c0,33.82 -28.7,61.5 -63.78,61.5l-636.01 0 -54.05 0 -228.14 0 -24.75 0c-12.12,0 -23.48,-3.3 -33.16,-9.02 -18.33,-10.84 -30.63,-30.34 -30.63,-52.48l0 -77.5zm475.61 192.74l527.82 0c69.61,0 126.57,-54.91 126.57,-122.02l0 -557.26 9.67 0c36.63,0 66.6,29.28 66.6,65.07l0 635.36c0,35.78 -29.97,65.07 -66.6,65.07l-664.06 0 0 -86.22zm-387.07 0l330.65 0 0 86.22 -264.05 0c-36.64,0 -66.6,-29.29 -66.6,-65.07l0 -21.15zm212.6 -511.37c-11.61,4.66 -19.78,15.62 -19.78,28.41 0,4.58 1.05,8.92 2.92,12.82l13.38 13.95 117.78 122.79 -25.1 174.1 -1.05 7.26c0,0.19 0,0.38 0,0.57 0,17 14.42,30.78 32.22,30.78 1.36,0 2.7,-0.08 4.01,-0.23l20.14 -10.17 144.43 -72.96 149.21 75.37 14.17 7.16c2.4,0.54 4.91,0.83 7.49,0.83 14.93,0 27.49,-9.71 31.15,-22.88l-3.4 -23.55 -23.97 -166.28 117.47 -122.47 14.26 -14.87c1.7,-3.74 2.64,-7.88 2.64,-12.22 0,-12.71 -8.06,-23.62 -19.56,-28.32l-14.08 -2.43 -167.44 -29 -70.16 -136.57 -5.89 -11.47 -8.76 -17.05c-5.86,-5.77 -14.06,-9.36 -23.14,-9.36 -9.06,0 -17.26,3.58 -23.11,9.34l-8.79 17.1 -5.88 11.44 -70.16 136.57 -167.38 28.99 -13.62 2.35zm221.5 24.23l67.01 -140.72 67.02 140.72 149.15 22.92 -107.74 109.89 25.18 154.89 -133.61 -72.81 -133.6 72.81 25.17 -154.89 -107.74 -109.89 149.16 -22.92z"/>
  <path class="fil0 str0" d="M-1287.8 -1965.48l0 328.36 203.86 0 0 -54.47 -147.84 0 0 -273.89 -56.02 0zm-433.63 271.54l268.75 -183.72 -32.54 -44.09 -201.12 138.67c41.66,-197.24 216.73,-345.29 426.38,-345.29 240.68,0 435.79,195.11 435.79,435.79 0,240.68 -195.11,435.79 -435.79,435.79 -9.55,0 -19.02,-0.31 -28.41,-0.91l-1.06 49.55c9.75,0.58 19.57,0.88 29.47,0.88 268.03,0 485.31,-217.28 485.31,-485.31 0,-268.03 -217.28,-485.31 -485.31,-485.31 -224.62,0 -413.59,152.59 -468.92,359.76l-112.22 -187.6 -47.24 30.44 166.91 281.35zm321.09 414.04l-15.95 46.9c20.7,7.04 42.03,12.72 63.88,16.94l9.39 -48.64c-19.61,-3.78 -38.75,-8.88 -57.32,-15.2zm-101.94 -50.42l-27.57 41.15c18.1,12.13 37.06,23.08 56.78,32.73l21.77 -44.49c-17.7,-8.67 -34.72,-18.49 -50.98,-29.39zm-85.66 -75.29l-37.25 32.62c14.1,16.11 29.26,31.28 45.36,45.4l32.65 -37.24c-14.46,-12.68 -28.08,-26.31 -40.76,-40.78zm-63.98 -96.26l-44.52 21.7c9.77,20.03 20.87,39.3 33.2,57.67l41.13 -27.59c-11.07,-16.5 -21.04,-33.8 -29.81,-51.78zm-35.67 -106.32l-48.6 9.54c4.13,21.05 9.62,41.62 16.38,61.6l46.92 -15.86c-6.06,-17.93 -10.99,-36.39 -14.7,-55.28zm-7.23 -55.63c-0.62,-9.51 -0.93,-19.1 -0.93,-28.76l-49.52 0c0,10.75 0.35,21.41 1.04,31.98l49.41 -3.22z"/>
  <path class="fil1 str1" d="M2864.21 419.7c-6.72,0.06 -6.84,-0.19 -7.01,89.56 -0.17,89.74 -0.4,269.47 -0.17,359.34 0.23,89.87 0.92,89.87 2.28,90.05 1.37,0.18 3.42,0.54 52.63,0.72 49.21,0.18 145.58,0.18 195.98,0 50.41,-0.18 54.85,-0.54 66.29,-4.86 11.45,-4.33 29.91,-12.62 46.14,-21.63 16.23,-9.01 30.25,-18.74 42.37,-30.63 12.13,-11.9 22.39,-25.96 32.3,-43.44 9.91,-17.48 19.48,-38.38 26.49,-62.35 7,-23.97 11.44,-51 12.81,-76.78 1.37,-25.77 -0.34,-50.28 -3.94,-76.05 -3.58,-25.77 -9.05,-52.8 -17.93,-77.13 -8.89,-24.33 -21.19,-45.95 -35.03,-64.88 -13.84,-18.92 -29.22,-35.14 -43.74,-45.95 -14.53,-10.82 -28.19,-16.22 -43.57,-20.91 -15.38,-4.68 -32.47,-8.65 -81.5,-11.18 -49.04,-2.52 -130.03,-3.6 -177.2,-3.95 -47.15,-0.36 -60.48,0.01 -67.2,0.07zm148.13 240.11c0.14,-46.86 0.41,-80.44 0.83,-97.22 0.42,-16.79 0.97,-16.79 3.59,-16.94 2.64,-0.14 7.34,-0.43 17.86,-0.58 10.52,-0.14 26.85,-0.14 38.34,-0.14 11.48,0 18.12,0 26.01,1.89 7.89,1.9 17.03,5.7 26.86,13.58 9.82,7.88 20.34,19.85 27.54,34.74 7.19,14.89 11.07,32.69 13.15,56.2 2.07,23.5 2.35,52.7 1.38,73.57 -0.97,20.87 -3.19,33.43 -7.2,47.15 -4.01,13.72 -9.83,28.61 -16.75,38.98 -6.92,10.36 -14.94,16.19 -22.83,19.55 -7.89,3.36 -15.64,4.24 -33.77,4.53 -18.13,0.29 -46.64,0 -60.9,-0.44 -14.25,-0.44 -14.25,-1.02 -14.25,-2.33 0,-1.32 0,-3.36 0,-34.45 0,-31.1 0,-91.23 0.14,-138.09z"/>
  <path class="fil1 str1" d="M3404.59 630.65c5.74,12.78 12.55,25.79 21.69,36.33 9.15,10.54 20.63,18.62 33.39,26.69 12.76,8.07 26.79,16.14 41.68,21.98 14.88,5.83 30.61,9.42 50.81,14.8 20.21,5.38 44.87,12.56 63.58,18.39 18.71,5.83 31.47,10.32 41.04,16.37 9.57,6.06 15.95,13.68 19.99,23.32 4.04,9.65 5.74,21.31 1.91,32.53 -3.83,11.21 -13.18,21.97 -24.24,29.38 -11.06,7.4 -23.81,11.43 -38.06,12.56 -14.25,1.12 -29.98,-0.68 -42.95,-5.16 -12.97,-4.49 -23.18,-11.67 -30.41,-21.31 -7.23,-9.65 -11.48,-21.75 -14.46,-32.29 -2.97,-10.54 -4.68,-19.52 -5.95,-24 -1.28,-4.49 -2.13,-4.49 -13.4,-3.81 -11.27,0.67 -32.96,2.02 -57.2,3.36 -24.24,1.34 -51.03,2.69 -64.64,4.04 -13.61,1.34 -14.03,2.69 -14.03,7.4 0,4.71 0.42,12.78 3.82,26.91 3.41,14.13 9.79,34.31 16.8,49.11 7.02,14.8 14.67,24.23 21.69,32.75 7.02,8.52 13.4,16.15 23.6,25.34 10.21,9.2 24.25,19.96 36.79,26.69 12.54,6.73 23.61,9.42 39.55,11.89 15.95,2.47 36.79,4.7 53.8,5.6 17.01,0.9 30.19,0.45 45.29,0 15.1,-0.45 32.1,-0.89 47.84,-2.46 15.73,-1.57 30.2,-4.26 45.72,-8.75 15.52,-4.49 32.1,-10.77 47.41,-21.3 15.31,-10.55 29.35,-25.35 40.83,-40.83 11.48,-15.47 20.41,-31.61 26.16,-47.76 5.74,-16.15 8.29,-32.3 9.35,-48.67 1.06,-16.37 0.64,-32.97 -2.77,-49.34 -3.4,-16.37 -9.78,-32.52 -18.28,-45.98 -8.5,-13.45 -19.14,-24.22 -31.47,-34.08 -12.33,-9.87 -26.37,-18.85 -44.23,-27.14 -17.86,-8.3 -39.55,-15.93 -59.53,-21.98 -19.99,-6.06 -38.28,-10.54 -55.08,-14.58 -16.8,-4.04 -32.1,-7.62 -44.65,-11.66 -12.55,-4.04 -22.33,-8.52 -29.35,-14.58 -7.01,-6.05 -11.26,-13.68 -12.97,-20.63 -1.7,-6.96 -0.84,-13.23 1.92,-19.96 2.76,-6.73 7.44,-13.91 12.97,-17.94 5.53,-4.04 11.91,-4.94 18.71,-6.06 6.8,-1.12 14.04,-2.47 22.97,-2.69 8.93,-0.22 19.56,0.67 28.49,2.24 8.93,1.57 16.16,3.82 22.75,8.53 6.59,4.71 12.54,11.89 16.37,18.62 3.83,6.72 5.53,13 6.8,18.6 1.28,5.61 2.13,10.55 5.53,12.56 3.41,2.02 9.36,1.12 23.18,0.23 13.82,-0.9 35.51,-1.79 56.99,-2.02 21.47,-0.22 42.74,0.22 53.37,0 10.63,-0.22 10.63,-1.12 9.35,-8.3 -1.27,-7.17 -3.82,-20.63 -8.72,-34.09 -4.88,-13.46 -12.11,-26.91 -21.04,-40.14 -8.93,-13.23 -19.57,-26.24 -32.54,-36.11 -12.97,-9.87 -28.27,-16.6 -47.63,-22.2 -19.34,-5.61 -42.74,-10.09 -63.57,-12.56 -20.84,-2.47 -39.13,-2.92 -56.99,-1.79 -17.86,1.12 -35.3,3.81 -50.61,6.72 -15.31,2.92 -28.49,6.06 -41.88,10.77 -13.4,4.71 -27.01,10.98 -38.92,18.39 -11.9,7.4 -22.11,15.92 -30.4,26.24 -8.3,10.31 -14.67,22.42 -19.57,35.21 -4.89,12.78 -8.29,26.24 -9.99,39.47 -1.7,13.23 -1.7,26.24 0.64,39.03 2.34,12.78 7.02,25.33 12.75,38.12z"/>
  <path class="fil1 str1" d="M3906.24 630.65c5.74,12.78 12.55,25.79 21.69,36.33 9.14,10.54 20.63,18.62 33.38,26.69 12.76,8.07 26.8,16.14 41.68,21.98 14.89,5.83 30.62,9.42 50.82,14.8 20.2,5.38 44.86,12.56 63.58,18.39 18.71,5.83 31.47,10.32 41.03,16.37 9.57,6.06 15.95,13.68 19.99,23.32 4.04,9.65 5.74,21.31 1.91,32.53 -3.82,11.21 -13.18,21.97 -24.24,29.38 -11.05,7.4 -23.81,11.43 -38.06,12.56 -14.24,1.12 -29.98,-0.68 -42.95,-5.16 -12.97,-4.49 -23.18,-11.67 -30.41,-21.31 -7.22,-9.65 -11.47,-21.75 -14.45,-32.29 -2.98,-10.54 -4.68,-19.52 -5.96,-24 -1.27,-4.49 -2.13,-4.49 -13.4,-3.81 -11.26,0.67 -32.95,2.02 -57.19,3.36 -24.24,1.34 -51.03,2.69 -64.64,4.04 -13.61,1.34 -14.03,2.69 -14.03,7.4 0,4.71 0.42,12.78 3.82,26.91 3.4,14.13 9.78,34.31 16.8,49.11 7.02,14.8 14.67,24.23 21.68,32.75 7.02,8.52 13.4,16.15 23.61,25.34 10.2,9.2 24.24,19.96 36.78,26.69 12.55,6.73 23.61,9.42 39.56,11.89 15.95,2.47 36.78,4.7 53.79,5.6 17.01,0.9 30.2,0.45 45.29,0 15.1,-0.45 32.11,-0.89 47.84,-2.46 15.74,-1.57 30.2,-4.26 45.72,-8.75 15.52,-4.49 32.11,-10.77 47.42,-21.3 15.31,-10.55 29.34,-25.35 40.82,-40.83 11.48,-15.47 20.42,-31.61 26.16,-47.76 5.74,-16.15 8.29,-32.3 9.35,-48.67 1.07,-16.37 0.64,-32.97 -2.76,-49.34 -3.4,-16.37 -9.78,-32.52 -18.29,-45.98 -8.5,-13.45 -19.13,-24.22 -31.47,-34.08 -12.33,-9.87 -26.36,-18.85 -44.22,-27.14 -17.86,-8.3 -39.55,-15.93 -59.54,-21.98 -19.99,-6.06 -38.28,-10.54 -55.08,-14.58 -16.79,-4.04 -32.1,-7.62 -44.65,-11.66 -12.54,-4.04 -22.32,-8.52 -29.34,-14.58 -7.02,-6.05 -11.27,-13.68 -12.97,-20.63 -1.7,-6.96 -0.85,-13.23 1.91,-19.96 2.77,-6.73 7.44,-13.91 12.97,-17.94 5.53,-4.04 11.91,-4.94 18.71,-6.06 6.81,-1.12 14.04,-2.47 22.97,-2.69 8.93,-0.22 19.56,0.67 28.49,2.24 8.93,1.57 16.16,3.82 22.75,8.53 6.6,4.71 12.55,11.89 16.38,18.62 3.82,6.72 5.52,13 6.8,18.6 1.28,5.61 2.13,10.55 5.53,12.56 3.4,2.02 9.35,1.12 23.17,0.23 13.82,-0.9 35.52,-1.79 56.99,-2.02 21.48,-0.22 42.74,0.22 53.37,0 10.64,-0.22 10.64,-1.12 9.36,-8.3 -1.28,-7.17 -3.83,-20.63 -8.72,-34.09 -4.89,-13.46 -12.12,-26.91 -21.05,-40.14 -8.93,-13.23 -19.56,-26.24 -32.53,-36.11 -12.97,-9.87 -28.28,-16.6 -47.63,-22.2 -19.35,-5.61 -42.74,-10.09 -63.58,-12.56 -20.83,-2.47 -39.13,-2.92 -56.99,-1.79 -17.86,1.12 -35.29,3.81 -50.6,6.72 -15.31,2.92 -28.49,6.06 -41.89,10.77 -13.4,4.71 -27,10.98 -38.91,18.39 -11.91,7.4 -22.11,15.92 -30.41,26.24 -8.29,10.31 -14.67,22.42 -19.56,35.21 -4.89,12.78 -8.29,26.24 -9.99,39.47 -1.71,13.23 -1.71,26.24 0.63,39.03 2.34,12.78 7.02,25.33 12.76,38.12z"/>
  <polygon class="fil1 str1" points="2528.82,1257.82 2482.01,1149.37 2395.51,1303.78 "/>
  <path class="fil1 str1" d="M2347.95 1238.05c27.23,-49.31 51.51,-93.26 69.23,-125.61 17.72,-32.36 28.87,-53.12 50.03,-84.78 21.16,-31.66 52.33,-74.23 73.99,-105.38 21.65,-31.14 33.79,-50.86 54.95,-78.54 21.16,-27.69 51.34,-63.33 74.15,-88.59 22.8,-25.26 38.22,-40.14 55.12,-55.02 16.9,-14.88 35.26,-29.76 45.44,-39.1 10.17,-9.35 12.13,-13.15 13.11,-15.4 0.99,-2.25 0.99,-2.94 -1.96,-5.54 -2.95,-2.59 -8.86,-7.09 -20.34,-9 -11.48,-1.9 -28.54,-1.21 -46.26,1.04 -17.72,2.25 -36.09,6.06 -56.92,13.15 -20.84,7.09 -44.13,17.48 -62.17,26.65 -18.05,9.16 -30.85,17.13 -43.64,26.99 -12.8,9.86 -25.59,21.63 -45.28,41.87 -19.68,20.24 -46.26,48.97 -79.07,88.59 -32.8,39.62 -71.85,90.14 -125,171.29 -53.15,81.14 -120.4,192.92 -162.4,262.99 -41.99,70.08 -58.72,98.45 -73.98,125.44 -15.26,26.99 -29.04,52.6 -38.39,69.38 -9.35,16.78 -14.27,24.74 -18.86,28.72 -4.59,3.98 -8.86,3.98 -13.45,1.04 -4.6,-2.94 -9.52,-8.82 -17.23,-18.34 -7.71,-9.52 -18.21,-22.66 -27.23,-33.22 -9.02,-10.55 -16.57,-18.52 -28.54,-30.1 -11.98,-11.6 -28.38,-26.82 -42.66,-39.28 -14.27,-12.45 -26.4,-22.15 -38.22,-31.32 -11.81,-9.17 -23.29,-17.82 -31.49,-22.83 -8.21,-5.02 -13.13,-6.41 -19.04,-7.45 -5.9,-1.04 -12.79,-1.73 -21.32,-0.17 -8.53,1.56 -18.7,5.37 -27.89,9.52 -9.18,4.15 -17.39,8.65 -24.44,14.19 -7.05,5.53 -12.96,12.11 -17.88,18.68 -4.92,6.57 -8.86,13.15 -10.83,18.69 -1.97,5.53 -1.97,10.03 -1.97,16.61 0,6.57 0,15.22 0.99,23.53 0.98,8.3 2.95,16.26 7.38,25.26 4.43,8.99 11.32,19.03 22.15,34.45 10.83,15.42 25.6,36.22 41.02,57.84 15.42,21.63 31.49,44.09 58.88,76.08 27.4,31.99 66.11,73.52 91.86,96.53 25.76,23.01 38.55,27.51 51.02,30.8 12.47,3.28 24.61,5.35 38.06,5.53 13.45,0.17 28.22,-1.56 41.01,-4.5 12.79,-2.94 23.62,-7.09 32.32,-12.63 8.69,-5.53 15.25,-12.45 21.48,-20.24 6.24,-7.79 12.15,-16.44 23.79,-36.33 11.65,-19.9 29.04,-51.05 48.56,-85.82 19.52,-34.78 41.17,-73.19 57.25,-103.3 16.08,-30.1 26.58,-51.91 46.91,-90.14 20.35,-38.24 50.53,-92.92 77.76,-142.23z"/>
  <path class="fil1 str1" d="M417.7 1395.53l7.73 -690.81 383.28 0.07c1.57,0 3.13,0.02 4.68,0.04 142.31,2.3 256.89,108.96 256.89,240.2 0,116.48 -90.26,213.6 -210.04,235.58l-180.28 1.2 -1.13 214.5 -261.13 -0.78zm1711 -274.75l210.04 -303.35 -272.77 -631.96 -2034.08 95.99 385.81 1114.07 182.6 527.29 1085.91 -374.45c-6.78,-7.99 -13.57,-15.98 -20.24,-26.03 -6.67,-10.05 -13.23,-22.16 -19.47,-36 -6.23,-13.84 -12.14,-29.42 -17.11,-43.23 -4.98,-13.82 -9.02,-25.88 -13.06,-37.95 -20.19,2.4 -40.84,3.64 -61.83,3.64 -239.52,0 -433.69,-161.68 -433.69,-361.13 0,-199.45 194.17,-361.13 433.69,-361.13 73.17,0 142.12,15.09 202.57,41.73l0 186.12c-40.64,-36.03 -97.93,-58.47 -161.41,-58.47 -123.3,0 -223.25,84.68 -223.25,189.16 0,104.47 99.95,189.16 223.25,189.16 69.43,0 131.46,-26.86 172.4,-68.97l0 74.69c5.3,-1.04 10.61,-2.08 17.2,-1.73 6.58,0.34 14.46,2.07 22.83,4.67 8.37,2.59 17.22,6.05 27.63,11.56 10.42,5.51 22.39,13.06 28.37,16.84 5.99,3.77 5.99,3.77 5.99,3.77l2.61 -573.11 258.62 0 -2.61 418.82zm-130.24 -491.57c-83.08,0 -150.43,-63.74 -150.43,-142.36 0,-78.63 67.35,-142.36 150.43,-142.36 83.08,0 150.43,63.73 150.43,142.36 0,78.62 -67.35,142.36 -150.43,142.36z"/>
  <path class="fil1 str1" d="M724.96 846.3l-35.35 -0.01 -0.06 187.6 29.76 0.01 11.24 0c63.52,-2.28 114.12,-43.38 114.12,-93.75 0,-51.83 -53.59,-93.85 -119.71,-93.85z"/>
  <g id="_105553564490848">
   <path class="fil2" d="M-6423.33 470.04c0,8.73 2.33,11.37 10.06,11.37 137.29,0 113.41,17.28 126.12,-58.4 3.96,-23.58 5.53,-44.25 9.53,-68.22l62.35 -422.52c0,46.6 -0.64,93.74 -0.13,140.27l4.41 138.94c4.78,39.36 2.62,95.37 2.41,141.19l3.09 102.55c-0.23,33.97 -6.47,26.19 87.54,26.19 11.91,0 13.68,-25.73 25.94,-61.63 8.43,-24.66 13.55,-47.46 20.62,-71.4 3.92,-13.26 6.97,-18.86 10.5,-33.61l105.35 -350.72c6.17,-20.04 3.28,-24.12 12.1,-35.57l-64.61 491.38c-8.93,77.3 -43.47,61.55 118.31,61.55 14.57,0 19.08,-61.54 22.11,-84.88l32.01 -236.55c11.13,-73.02 33.46,-216.01 39.83,-284.54l13.68 -98.17c1.75,-18.11 6.47,-29.83 6.47,-49.51l-211.42 0 -79.32 281.63c-3.81,13.78 -5.28,13.61 -8.68,28.08 -4.51,19.22 -33.53,128.82 -42.89,140.96 0,-75.74 0,-151.49 0,-227.23 0,-77.52 -3.35,-144.19 -3.35,-223.44l-198 0 -104.03 742.28z"/>
   <path class="fil2" d="M-2661.35 333.71c-23.95,0 -48.5,-2.98 -62.79,-35.19 -24.59,-55.44 -14.66,-133.98 0.1,-190.84l21.3 -51.7c45.12,-72.54 138.71,-60.56 138.71,61.86 0,58.01 -3.02,97.28 -25.71,148.98l-26.86 41.64c-10.57,10.95 -28.76,25.25 -44.75,25.25zm130.88 -397.66l-28.83 -31.84c-0.51,-0.53 -1.22,-1.31 -1.73,-1.84 -0.51,-0.52 -1.22,-1.3 -1.73,-1.83 -77.71,-80.65 -183.4,-39.83 -246.28,58.2 -21.79,33.98 -48.41,95.15 -56.19,137.31 -19.88,107.84 -14.25,66.42 -14.25,184.64 0,35.54 16.96,83.76 29.72,114.15l23.59 37.76c0.47,0.57 1.17,1.37 1.64,1.94l13.58 14.97c38.62,37.71 84.49,45.11 133.59,32.76 17.02,-4.28 18.6,-5 31.85,-13.29 43.36,-27.11 30.81,-28.91 51.28,-44.38 0,70.23 -46.81,56.81 114.1,56.81 15.39,0 14.16,-21.11 15.84,-35.15l44.82 -335.72c2.74,-40.61 38.13,-249.61 39.91,-284.43 1.25,-24.46 4.27,-28.95 6.69,-49.27 2.1,-17.68 6.52,-32.71 6.84,-49.08l-137.59 0c0,34.61 -7.72,72.77 -13.15,102.56l-13.7 105.73z"/>
   <path class="fil2" d="M-3037.21 1261.56c-20.8,0 -34.78,-9.13 -44.68,-25.32 -21.67,-35.41 -19.52,-104.71 -15.34,-148.45 4.84,-50.77 35.83,-148.14 93.58,-148.14 102.34,0 73.02,248.58 15.49,301.52 -13.08,12.03 -27.09,20.39 -49.05,20.39zm130.88 -397.65c-24.42,-18.46 -37.85,-75.74 -124.17,-75.74 -58.35,0 -107.9,51.27 -137.47,102.39 -72.14,124.73 -100.96,385.83 2.39,489.36 53.2,53.29 134.04,48.38 185.02,-8.99 13.62,-15.33 6.07,-11.34 17.18,-14.69 -4.65,22.52 -11.82,53.02 3.36,53.02l110.74 0 61.34 -476.13c1.85,-13.51 4.5,-27.24 6.82,-45.32l27.74 -215.77c0.9,-10.28 2.59,-16.42 -8.65,-16.42l-117.45 0c0,28.2 -24.44,175.64 -26.85,208.29z"/>
   <path class="fil2" d="M-5621.27 356.43c-20.72,0 -46.48,-0.44 -53.55,-38.22 -8.53,-45.63 6.52,-83.68 44.72,-100.51 43.6,-19.21 66.15,-11.78 96.09,-8.97 -0.66,33.05 -9.6,74.9 -21.55,96.88 -13.4,24.65 -37.11,50.82 -65.71,50.82zm-104.03 -469.61c0,23.42 -4.65,47.04 -7.26,71.34 -2.24,20.88 -9.52,45.05 -9.52,68.78 35.27,-19.09 197.4,-50.12 223.66,-2.44 13.44,24.4 3.12,40.54 1.18,66.83 -30.64,-8.06 -98.34,-5.63 -127.95,3.3 -15.51,4.67 -30.01,7.72 -44.19,14.51 -16.22,7.76 -23.38,11.79 -37.29,22.3 -91.26,68.97 -109.87,222.04 -51.01,310.61 43.94,66.12 143.52,61.96 205.6,7.76l28 -29c-5.55,26.88 -3.36,28.43 -3.36,60.6 130.6,0 111.99,11.67 118.97,-43.74l34.37 -275.55c8.56,-67.44 23.32,-154.02 -4.74,-219.56 -14.26,-33.33 -34.03,-49.39 -61.39,-67.05 -19.71,-12.72 -73.22,-22.78 -100.63,-22.78 -78.97,0 -147.51,32.5 -164.44,34.09z"/>
   <path class="fil2" d="M-3403.01 356.43c-28.91,0 -57.05,-5.86 -57.05,-60.6 0,-73.75 65.46,-90.89 120.82,-90.89 11.57,0 12.99,2.8 23.49,3.79 0,58.94 -28.05,147.7 -87.26,147.7zm-100.67 -469.61l-20.14 140.12 52.24 -16.79c41.1,-8.35 115.87,-19.65 154.58,-0.74 25.19,12.31 25.25,35.16 21.59,67 -2.94,25.71 -7.09,11.13 -27.05,11.13 -53.81,0 -90.59,-2.55 -141.46,18.37 -75.77,31.15 -127.02,106.69 -127.02,197.5 0,32.4 -0.98,60.11 9.1,91.99l19.97 41.85c32.07,44.95 70.92,59.74 121.83,51.61 81.1,-12.96 87.51,-47.86 114.22,-68.05 -1.46,73.82 -32.53,60.6 110.75,60.6l41.12 -328.52c13.67,-77.81 23.83,-201.65 -39.1,-256.99 -17.99,-15.82 -34.86,-24.9 -56.39,-31.04 -98.53,-28.12 -144.31,-1.69 -234.24,21.96z"/>
   <path class="fil2" d="M-3503.68 1284.28c-95.17,0 -85.05,-262.34 -3.99,-326.4 33.59,-26.55 77.48,-15.64 94.29,46.5 18.71,69.15 5.95,279.9 -90.3,279.9zm23.49 147.7l-64.49 0c-9.41,-1.51 -19.63,-5.19 -41.17,-13.31 -44.92,-16.94 -71.36,-52.51 -92.89,-99.68 -18.22,-39.9 -29.65,-123.7 -29.65,-167.26 0,-42.22 7.81,-87.31 13.79,-124.55 5.14,-32.01 21.55,-74.76 35.11,-100.51l25.65 -43.01c28.42,-39.12 63.49,-67.41 110,-80.37 39.45,-11 63.77,-14.44 106.13,-2.32 186.95,53.46 167.91,385.9 92.55,521.93 -20.74,37.43 -39.38,58.77 -73.89,79.47 -23.72,14.23 -52.38,29.61 -81.14,29.61z"/>
   <path class="fil2" d="M-4453.41 72.39l0 30.3 -147.66 0c8.05,-38.98 24.1,-91.84 64.53,-105.27 42.87,-14.24 83.13,12.53 83.13,74.97zm-295.32 143.91c0,85.12 23.45,178.57 87.22,231.06 13.4,11.03 22.63,15.15 39.12,24.02 74.32,40.02 230.39,11.58 245.31,-6.09 7.42,-8.78 17.4,-134.18 24.35,-150.52 -14.82,1.39 -36.92,14.9 -52.43,20.36 -71.85,25.32 -205.98,31.76 -205.98,-84.74l0 -22.73 268.48 0c2.82,-38.28 16.78,-52.43 16.78,-151.48 0,-73.14 -16.04,-115.2 -44.99,-157.53 -34.45,-50.36 -91.98,-65.92 -153.01,-65.92 -46.01,0 -92.85,32.15 -126.14,65.95l-8.65 9.18c-23.13,26.91 -40.02,60.83 -54.33,93.96 -13.72,31.79 -24.91,86.53 -29.25,122.26 -2.61,21.43 -6.48,48.41 -6.48,72.22z"/>
   <path class="fil2" d="M-5231.98 1170.67c0,73.07 -5.18,131.58 30.32,196.8 8.11,14.9 17.29,27.09 30.64,37.38 9.42,7.26 9.98,8.53 22.09,12.94 27.35,9.94 61.86,8.59 89.04,-3.68 51.2,-23.12 77.92,-87.16 89.67,-91.95 0,35.52 -6.71,50.13 -6.71,87.1l120.81 0c0,-29 8.98,-78.25 12.53,-110.84 7.14,-65.52 12.55,-129.55 24.09,-192.46l29.92 -223.77c3.01,-28.45 7.29,-49.14 7.29,-78.87l-130.88 0 -43.4 318.38c-2.62,22.76 -8.62,38.87 -15.99,57.7 -39.39,100.69 -134.9,86.26 -122.87,-17.22 2.72,-23.43 2.25,-39.89 5.33,-62.41l16.12 -121.94c10.38,-56.69 11.84,-106.92 20.48,-151.75 1.87,-9.75 6.8,-22.76 -7.33,-22.76 -160.97,0 -126.36,-10.23 -131.75,40.68l-24.67 184.24c-2.29,17.52 -1.86,33.47 -4.15,48.33 -4.66,30.35 -10.58,60.31 -10.58,94.1z"/>
   <path class="fil2" d="M-6201.84 1170.67c0,30.88 4.22,65.52 -26.88,87.07 -46.85,32.45 -131.09,22.68 -175.26,-10.7 -13.41,-10.14 -15.51,-18.66 -18.99,-0.79 -1,5.13 -0.77,10.73 -1.91,17.29 -1.17,6.72 -3.29,13.41 -4.27,17.97l-21.03 112.6 63.43 23.1c57.9,13.58 42.78,14.7 86.14,14.77l18.35 0 3.23 0c35.73,0 99.88,-22.67 127.6,-45.36 65.39,-53.52 81.97,-129.71 86.71,-220.31 1.22,-23.42 -10.17,-87.11 -17.36,-104.28 -19.45,-46.46 -41.81,-71.07 -81.26,-97.66l-17.37 -10.7c-15.66,-9.57 -41,-26.17 -52.33,-39.4 -33.77,-39.44 -32.41,-122.32 68.11,-122.32 19.59,0 46.23,4.11 61.38,10.26 7.68,3.12 16.93,6.56 24.2,10.57 10.77,5.95 12.08,9.82 25.17,13.26l15.95 -76.68c2.86,-13.73 4.46,-26.51 6.84,-37.73 3.09,-14.58 7.1,-25.02 7.41,-40.87 -51.93,-13.65 -27.83,-30.29 -161.08,-30.29 -33.32,0 -60.87,8.68 -85.89,20.48 -55.24,26.07 -81.12,68.21 -101.1,128.28 -4.43,13.32 -10.48,32.44 -11.06,48.11 -2.3,62.02 -11.8,132.22 36.08,194.2 15.26,19.74 41.23,38.82 61.46,51.84 23.22,14.95 83.73,48.41 83.73,87.29z"/>
   <path class="fil2" d="M-2547.25 932.08c15.17,0 30.49,7.78 38.92,16.67 22.48,23.72 18.13,62.03 18.13,93.16 -156.98,0 -143.31,9.83 -129.64,-32.63 11.65,-36.17 29.76,-77.2 72.59,-77.2zm14.63 499.9l-36.51 0c-120.98,-8.72 -196.25,-106.92 -196.25,-280.25 0,-105.96 26.78,-205.25 83.39,-284.61 10.5,-14.71 21.33,-24.18 35.47,-35.71 94.72,-77.18 217.98,-32.9 252.79,59.97 1.21,3.22 1.55,4.84 2.79,8.22l6.31 15.6c15.51,40.82 15.39,117.2 11.47,160.31l-7.62 63.37c-1.8,11.26 -4.54,16.64 -5.38,28l-251.7 0c-0.83,41.97 0.79,88.55 46.51,110.37 35.09,16.75 86.93,15.18 122,4.05l73.12 -27.31c-25.13,121.74 0.9,150.52 -51.24,161.83 -14.16,3.06 -20.43,5.22 -30.22,7.56 -19.04,4.56 -37.38,7.42 -54.93,8.6z"/>
   <path class="fil2" d="M-5762.22 1041.91l-127.52 0c1.62,-82.03 80.89,-148.96 122.99,-85.78 8.88,13.32 27.36,85.78 4.53,85.78zm-38.18 390.07l-16.15 0c-15.81,-0.58 -32,-2.9 -50.09,-7.13 -33.86,-7.93 -53.88,-15.41 -80.21,-38.24 -26.61,-23.08 -51.61,-59.76 -61.13,-93.87 -13.56,-48.54 -19.36,-75.33 -19.36,-137.22 0,-74.51 10.54,-128.22 31.43,-191.77 3.87,-11.78 5.69,-15.17 10.51,-26.01 9.97,-22.46 24.9,-51.57 39.4,-69.15 11.71,-14.19 21.12,-24.28 35.13,-36.1 65.01,-54.91 164.8,-55.98 220.52,7.12l3.28 3.88c22.05,26.94 24.05,34.31 36.79,64.53 19.36,45.94 15.59,95.96 15.59,145.25 0,40.9 -12.68,75.92 -13.43,113.61l-251.69 0c-1.52,20.6 -1.71,49.64 7.96,70.55 8.42,18.21 21.51,33.01 38.47,39.9 39.99,16.26 81.25,15.64 122.06,3.95 15.33,-4.4 25.19,-6.18 38.49,-13.37 11.93,-6.47 19.42,-12.49 34.65,-13.92l-16.89 109.71c-0.41,8.44 -2.86,29.41 -5.6,35.34 -8.16,17.66 -37.32,18.29 -56.73,23.08 -23.2,5.73 -43.2,9.13 -63,9.86z"/>
   <path class="fil2" d="M-4309.1 932.08c16.97,0 28.83,7.18 38.39,17.26 23.79,25.1 18.66,59.6 18.66,92.57 -142.43,0 -145.57,12.19 -130.06,-33.1 4.46,-13.03 8.8,-24.64 14.78,-36.4 9.6,-18.92 33.23,-40.33 58.23,-40.33zm-218.14 223.44c0,79.89 21.22,184.49 82.46,232.64 13.71,10.78 21.63,14.1 37.17,22.44 48.15,25.86 115.25,24.01 168.09,12.81 8.55,-1.82 18.95,-4.53 30.27,-7.5 10.08,-2.65 19.78,-7.48 31.03,-10.44l20.13 -151.48c-15.72,1.47 -65.74,32.91 -104,34.14 -21.28,0.68 -24.26,2.45 -40.74,0.74 -33.05,-3.43 -51.23,-6.64 -70.45,-26.84 -27.83,-29.24 -26.43,-52.42 -26.43,-95.15l251.69 0c0.37,-18.66 7.44,-40.52 9.92,-60.76 7.11,-58.11 9.64,-136.5 -8.44,-190.86 -8.59,-25.81 -2.36,-14.91 -15.32,-35.73 -2.88,-4.62 -3.88,-6.98 -6.5,-11.61 -54.41,-96.25 -192.8,-108.29 -275.99,2.43 -6.77,9.02 -10.12,10.44 -15.67,20.18 -4.57,8.04 -8.01,14.85 -12.89,23.32 -30.13,52.23 -54.33,155.93 -54.33,241.67z"/>
   <path class="fil2" d="M-4000.36 121.62c0,47.44 -3.11,98.95 6.64,144 11.65,53.86 19.09,89.19 53.24,136.85 23.34,32.58 54.31,59.23 88.66,74.16 58.3,25.33 115.43,18.21 173.95,5.13 50.78,-11.34 30.44,1.16 48.08,-108.58 3.29,-20.47 8.24,-52.78 8.65,-73.56 -53.77,29.12 -108.97,52.4 -166.48,25.03 -28.18,-13.41 -49.8,-44.39 -59.2,-77.11 -18.07,-62.86 -12.59,-56.96 -12.59,-133.49 0,-20.38 9.8,-70.41 14.97,-89.15 15.48,-56.15 56.33,-122.16 111.02,-139.81 9.45,-3.05 29.12,-9.63 38.45,-9.63 44.3,0 97.63,21.6 124.17,41.66 5.41,-12.74 23.49,-143.94 23.49,-166.64l-27.22 -10.94c-37.27,-12.93 -67.72,-23.58 -100.09,-26.93l-42.24 0c-11.36,1.16 -23.29,3.29 -36.08,6.54 -9.74,2.48 -9.37,2.54 -15.88,4.8 -41.12,14.26 -35.39,12.78 -69.89,34.74 -31.35,19.96 -60.11,55.23 -82.61,88.57 -12.13,17.97 -20.51,35.99 -30.39,56.59 -24.5,51.06 -48.65,161.23 -48.65,217.77z"/>
   <path class="fil2" d="M-3869.48 1428.2c25.25,0 84.64,-7.89 105.69,-17.07 18.9,-8.25 13.68,-21.57 18.63,-62.29 1.49,-12.28 4.43,-25.47 5.64,-35.29 3.03,-24.34 7.63,-55.38 7.63,-78.5 -18.2,5.49 -59.78,37.87 -107.39,37.87 -159.16,0 -140.35,-334.89 -36,-430.7 81.5,-74.82 176.97,4.97 193.73,6.54 0.49,-24.95 7.32,-54.84 10.28,-79.29 3.07,-25.31 8.02,-58.58 9.86,-83.56 -89.98,-48.72 -203.72,-57.44 -284.25,16.29 -7.6,6.96 -13.52,11.56 -20.34,18.7 -6.74,7.04 -11.97,13.2 -18.49,20.79 -8.39,9.74 -9.47,13.74 -15.87,23.75 -75.25,117.7 -93.49,252.53 -83.74,401.26 2.67,40.67 18.31,99.93 32.32,130.17l13.53 26.38c40.91,66.67 94.27,104.95 168.77,104.95z"/>
   <path class="fil2" d="M-5339.37 42.09c0,77.12 9.03,111.73 61.11,162.06 35.02,33.85 128.95,51.27 98.84,120.7 -24.82,57.25 -163.26,12.14 -190.15,5.07 -5.51,12.95 -19.7,117.63 -20.14,140.12 43.67,23.65 173.64,24.11 234.71,7.35 45.72,-12.54 77.98,-46.18 99.58,-92.13 18.19,-38.67 19.35,-124.83 5.48,-173.67 -5.01,-17.61 -14.41,-34.57 -24.98,-47.56l-8.02 -9.88c-14.64,-16.62 -33.55,-29.63 -52.09,-39.68l-44.07 -26.02c-33.36,-25.31 -17.77,-63.31 -4.02,-74.54 34.47,-28.14 121.13,-3.72 135.9,-5.39 14,-1.58 12.03,-3.1 14.5,-18.02l15.52 -118.83c0,-9.72 -27.07,-8.73 -49.29,-12.55 -13.56,-2.33 -43.25,-4.72 -58.3,-6.21 -31.2,-3.09 -88.54,9.87 -110.14,19.22 -16.65,7.21 -27.43,15.14 -40.95,25.75l-22.92 23.37c-0.47,0.56 -1.16,1.37 -1.62,1.95 -22.6,28.34 -38.95,85.14 -38.95,118.89z"/>
   <path class="fil2" d="M-5604.49 1129.01c0,54.74 0.88,105.28 21.29,157.76 3.45,8.87 3.31,10.33 6.44,19.24 20.61,58.7 79.87,122.19 140.07,122.19 56.33,0 38.99,1.62 91.61,-10.23 33.7,-7.59 37.52,-8.39 45.49,-100.15l7.2 -71.41c-11.74,3.54 -5.56,3.42 -13.19,7.84 -33.34,19.34 -77.99,28.78 -112.74,5.52 -69.89,-46.77 -53.77,-193.35 -22.47,-248.99 28.63,-50.9 54.13,-59.77 98.06,-59.77 31.52,0 53.3,18.04 73.83,30.3l22.99 -106.61c2.01,-16.25 2.13,-25.34 7.22,-37.3 -16.85,-12.73 -36.7,-24.94 -59.19,-31.68 -51.02,-15.29 -96.22,-18.29 -144.49,6.34 -34.05,17.38 -52.05,34.69 -76.24,61.66l-20.78 29.57c-29.19,47.68 -25.23,48.82 -43.83,98.24 -11.65,30.97 -21.27,96.01 -21.27,127.48z"/>
   <path class="fil2" d="M-5010.49 345.07c0,55.28 9.54,111.4 56.94,136.46 38.21,20.2 105.38,9.67 139.91,-5.2 11.62,-5.01 9.79,-5.41 12.04,-20.5 2.76,-18.49 4.51,-38.93 7.83,-59.34 3.04,-18.72 6.87,-41.94 8.13,-59 -19.56,0 -48.8,10.25 -69.3,-5.11 -25.08,-18.78 -10.77,-67.76 -5.39,-98.11 4.24,-23.91 5.58,-48.17 9.5,-72.59 7.86,-48.88 12.19,-96.96 21.56,-142.31l67.12 0c3.29,-44.61 14.71,-94.42 17.83,-136.11 0.89,-12 3.68,-14.09 -10.64,-15.61 -15.16,-1.61 -41.15,0.23 -57.53,0.23 7.29,-17.15 12.03,-67.91 16.78,-90.89l-137.6 0 -35.07 244.45c-2.22,13.68 -1,24.65 -3.17,38.09l-11.64 66.39c-4.53,47.36 -27.3,194.97 -27.3,219.15z"/>
   <path class="fil2" d="M-4117.82 -48.8c0.49,-24.83 9.54,-56.65 10.07,-83.32l-124.17 0c-4.87,23.62 -5.71,50.45 -10.77,74.96l-42.49 311.82c-3.92,25.94 -5.83,55.18 -10.17,79.41l-16.8 117.65c-6.68,39.77 -16.5,29.69 123.86,29.69 15.08,0 13.41,-25.54 18.23,-55.18 10.03,-61.72 14.24,-125.05 27.94,-195.69 7.78,-40.11 21.77,-145.89 49.28,-171.62 15.65,-14.65 32.09,-16.83 52.21,-16.83 0,-36.05 34.44,-144.1 50.34,-177.99 -46.22,-4.34 -66.65,-0.31 -104.57,52.42 -13.4,18.63 -13.36,26.75 -22.96,34.68z"/>
   <path class="fil2" d="M-2960.02 -48.8c0,-32.26 10.06,-54.26 10.06,-83.32l-124.17 0 -66.27 478.14c-5.81,50.32 -14.27,92.75 -14.27,135.39l127.53 0c12.12,0 9.84,-9.36 10.32,-22.43l31.31 -229.78c3.45,-21.9 8.72,-39.03 12.02,-62.18 4.44,-31.16 18.38,-83.98 39.3,-107.14 13.99,-15.49 25.28,-17.79 51.35,-17.79 0.71,-35.75 21.47,-100.54 33.04,-133.13 5.88,-16.56 13.56,-25.31 13.94,-44.86 -22.55,-2.12 -16.68,-5.16 -42.34,1.42 -29.14,7.48 -38.87,25.9 -55.27,47.48l-26.55 38.2z"/>
   <path class="fil2" d="M-4611.14 882.85c0,-25.93 6.72,-51 6.72,-79.53l-114.11 0c-2.2,29.93 -7.56,58.99 -11.99,88.72l-64.73 510.94c-0.6,20 14.06,14.21 33.04,13.92 31.25,-0.47 62.74,-0.06 94.02,-0.06 3.99,-19.34 3.85,-42.1 7.6,-63.38l36.38 -250.57c1.5,-8.53 2.29,-18.84 4.42,-29.09 2.71,-13.04 5.68,-16.15 9.05,-27.66 5.76,-19.68 2.17,-16.64 13.36,-37.94 13.7,-26.06 24.15,-30.68 56.72,-30.68 2.77,-37.61 16.77,-84.95 27.73,-120.19 3.06,-9.83 3.07,-12.94 6.91,-22.5 11.98,-29.78 22.26,-39.09 -7.8,-39.09 -57.5,0 -84.49,76.5 -97.32,87.11z"/>
   <path class="fil2" d="M-2372.74 390.51c0,-18.57 10.09,-39.83 19.12,-50.37 58.68,-68.49 138.02,34.55 85.51,100.28 -40.53,50.73 -104.63,6.61 -104.63,-49.91zm-20.13 -7.57c0,40.92 16,80.86 48.66,96.57 62.6,30.11 115.78,-31.65 115.78,-85.21 0,-94.72 -92.94,-131.99 -139.56,-74.17 -11.78,14.6 -24.88,37.2 -24.88,62.81z"/>
   <path class="fil2" d="M-2255.28 1288.07l0 113.62 23.49 0 3.36 -83.32c0,24.73 8.87,61.28 13.42,83.32l23.49 0 9.73 -68.56c1.95,-5.43 1.92,-4.31 3.69,-7.19l0 75.75 20.14 0 0 -124.98 -30.2 0 -10.93 67.21c-0.14,0.96 -1.74,10.84 -2.19,12.67l-2.64 8.38c-0.2,0.6 -0.57,1.82 -1.02,2.63 -0.81,-10.94 -1.98,-11.46 -4.08,-21.91l-12.7 -68.98c-15.55,0 -33.56,-5.44 -33.56,11.36z"/>
   <polygon class="fil2" points="-2342.54,1303.22 -2312.33,1303.22 -2312.33,1401.69 -2292.2,1401.69 -2292.2,1303.22 -2261.99,1303.22 -2261.99,1276.71 -2342.54,1276.71 "/>
   <path class="fil2" d="M-2308.98 382.94l-13.42 0 0 -18.94c13.25,0 13.62,1.19 23.49,3.79 -0.79,10.69 0.08,15.15 -10.07,15.15zm-30.2 -26.51l0 75.74 16.78 0 0 -30.3 13.42 0c2.35,31.84 14.27,30.3 26.85,30.3 -0.33,-16.89 -4.89,-23.05 -10.07,-34.08 7.03,-11.85 17.45,-18.58 9.75,-37.08 -5.53,-13.29 -56.73,-27.91 -56.73,-4.58z"/>
  </g>
  <rect class="fil3 str0" x="-1985" y="215.15" width="1453.15" height="1152.66"/>
  <path class="fil2 str1" d="M-6089.09 2490.79c4.13,-8.36 7.87,-14.39 13,-22.85l188.36 -355.99c4.67,-9.44 8.02,-16.1 12.72,-25.48 8.45,-16.93 15.7,-31.82 24.56,-47.08l113.07 -214.05c5.57,-9.75 15.32,-22.24 1.63,-22.24l-140.84 0c-7.15,0 -8.26,6.43 -11.22,12.66l-166.25 332.77c-11.47,22.93 -25.61,47.95 -34.68,70.38 -12.52,30.9 -64.81,120.08 -69.57,140.56l-4.78 0c-0.35,-15.35 -28.73,-146.31 -33.45,-174.29l-47.12 -246.56c-3.98,-19.91 -26.87,-125.11 -26.87,-142.67l-157.56 26.25c0,24.81 11.49,49.14 14.18,74.18 3.4,31.65 63.32,283.49 75.92,341.94l49.73 227.24c3.96,18.08 19.85,79.74 20.13,92.09l138.46 0c8.3,0 34.58,-54.65 40.58,-66.86z"/>
  <path class="fil2 str1" d="M-5843.54 2230.16c-24.02,84.19 -32.88,211.12 36.71,279.21 11.39,11.16 23.16,18.79 37.17,27.27 21.35,12.96 67.11,28.17 100.77,28.17 64.4,0 99.8,1.45 162.34,-21.47 29.38,-10.78 61.77,-26.81 85.93,-42.98l0 -105.07 -58.03 32.69c-26.89,13.45 -86.4,31.77 -123.41,31.77 -40.06,0 -69.64,-3.64 -99.76,-31.56 -24.51,-22.71 -26.77,-73.09 -26.77,-109.33l329.46 0c12.15,0 11.1,-29.46 12.1,-42.82 3.65,-48.45 10.23,-85.8 -6.44,-139.52 -7.28,-23.44 -21.8,-47.98 -36.12,-64.18 -13.64,-15.45 -37.59,-31.95 -57.85,-40.02 -54.72,-21.8 -140.98,-16.49 -194.11,6.47 -78.64,34.02 -139.31,111.81 -161.99,191.37zm332.21 2.75l-200.53 0c1.12,-13.7 10.38,-32.76 15.89,-43.78 13.91,-27.72 29.94,-46.38 55.31,-64.07 10.01,-6.98 29.38,-13.91 45.77,-13.91 30.31,0 48.38,7.75 64.87,28.22 19.66,24.37 18.69,61.55 18.69,93.54z"/>
  <path class="fil2 str1" d="M-5274.97 2029.94c-4.48,53.74 -38.04,257.38 -48.78,321.36 -4.57,27.2 -7.81,50.77 -12.25,78.45l-18.88 119.68c0.56,10.05 13.08,5.84 39.31,5.84 31.03,0 62.07,0 93.12,0 8.28,-35.6 38.01,-238.8 44.64,-280.07 4.85,-30.2 2.11,-20.7 31.14,-50.07 13.59,-13.75 29.45,-24.49 46.39,-34.78 27.86,-16.87 42.19,-24.67 70.17,-30.11 20.04,-3.89 31.21,-8.51 55.93,-8.51l-2.38 -133.73c-36.31,0.82 -79.55,16.13 -107.94,35.31 -16.22,10.97 -42.99,35.95 -55.42,52.03 -5.64,7.32 -11.01,12.98 -18.07,17.75l-2.4 -93.15 -114.58 0z"/>
  <path class="fil2 str1" d="M-4905.65 2072.23l-43.96 278.39c-2.14,14.47 -1.97,28.94 -4.36,43.39l-24.98 161.26 126.54 0c11.14,0 14.2,-44.94 16.31,-60.1 3.23,-23.34 7.22,-43.12 10.35,-66.06 1.44,-10.52 3.24,-20.67 5.12,-33.07 1.35,-9.03 1.73,-26.01 3.29,-34.92l53.26 -331.18c-12.77,0 -128.23,-3.14 -133.86,2.23 -3.61,3.44 -6.33,31.8 -7.71,40.06z"/>
  <path class="fil2 str1" d="M-4644.72 2139.79c-3.26,6.81 -6.36,39.4 -8.52,51.17 -3.26,17.77 -5.94,33.69 -8.31,51.36 -7.57,56.17 -47.63,283.6 -47.63,312.95l126.54 0c10.3,0 6.86,-17.68 11.92,-47.76l49.76 -313.2c2.33,-16.74 7.56,-38.48 7.56,-54.52l114.58 0 0 -109.85 -95.48 0c0,-31.74 3.18,-40.02 8.17,-70.62 15.03,-91.96 90.19,-65.47 132.68,-65.47l0 -109.84 -71.64 -2.39c-110.77,0 -173.23,59.53 -189.97,153.81l-11.56 74.4c-1.37,10.49 0.97,20.11 -8.56,20.11l-71.6 0c0,44.1 -11.56,76.64 -14.34,109.85l76.4 0z"/>
  <path class="fil2 str1" d="M-4327.35 2032.17c-3.29,3.13 -46.89,285.62 -51.68,318.45l-10.94 82.18c-2,12.12 -4.58,28.42 -6.33,41.41l-12.06 81.06 126.52 0c11.15,0 14.22,-44.94 16.31,-60.1 3.2,-22.97 6.56,-43.67 10.29,-66.11 3.41,-20.5 5.19,-47.86 8.52,-67.91l31.4 -197.82c3.73,-22.45 7.09,-43.13 10.29,-66.12 1.23,-8.9 9.22,-62.45 11.53,-67.27 -12.76,0 -128.24,-3.14 -133.85,2.23z"/>
  <path class="fil2 str1" d="M-4141 2228.1c-7.99,42.47 -19.07,56.07 -19.07,117.04 0,43.3 0.39,63.02 15.67,103.72 12.78,34.14 34.94,61.78 64.49,81.13 9.87,6.46 20.21,11.57 31.34,16.42 77.78,33.87 187.99,18.9 263.02,-10.54 7.24,-2.84 13.99,-7.81 21.76,-11.67l42.99 -21.47 0 -107.44 -56.47 31.84c-25.07,12.79 -86.33,32.62 -120.19,32.62 -30.24,0 -47.28,1.59 -75.65,-12.67 -32.31,-16.23 -43.19,-37.31 -51.82,-72.35 -6.33,-25.72 -1.45,-43.81 -1.45,-55.87l327.06 0c21.98,0 16.73,-118.98 16.73,-131.33 0,-61.89 -50.37,-143.76 -112.4,-157.42 -52.77,-11.6 -86.75,-19.41 -146.25,-3.35 -51.99,14.04 -83.51,28.5 -120.37,70.62 -23.32,26.65 -13.19,1.31 -50.85,63.77 -8.35,13.82 -25.12,48.81 -28.54,66.95zm331.88 4.81l-200.56 0c4.3,-51.75 59.74,-121.76 114.61,-121.76 32,0 52.46,9.16 68.61,31.63 15.07,20.95 17.34,62.77 17.34,90.13z"/>
  <path class="fil2 str1" d="M-3284.24 2251.67c-5.36,31.6 -10.36,63.57 -15.38,96.87 -4.72,31.36 -1.04,18.99 -17.01,37.9 -5.54,6.57 -6.2,9.4 -13.32,15.31 -26.46,22.02 -62.93,43.69 -99.59,43.69 -12.47,0 -26.05,-3.87 -35.55,-7.45 -65.87,-24.76 -47.19,-154.2 -25.71,-201.9 14.28,-31.74 21.81,-48.78 45.1,-71.87 18.16,-18.03 48.74,-32.75 83.09,-34.1 10.47,-0.39 41.68,3.85 50.94,6.4 14.75,4.04 30.29,11.35 42.09,17.59l-14.66 97.56zm-290.47 -120.98c-44.74,65.96 -69.72,143.23 -72.02,224.06 -0.62,22.27 -2.85,24.08 0.27,54.51 4.33,42.13 23.21,94.12 57.95,121.15 12.21,9.52 22.96,16.07 37.21,22.47 32.3,14.48 54.41,11.93 88.34,11.93 29.04,0 67.23,-16.61 86.75,-27.86l48.78 -37.17c5.51,-5.49 8.71,-9.63 14.87,-13.76 0,12.73 0.03,25.46 0,38.21 -0.12,40.07 -17.6,31.04 109.81,31.04 10.42,0 6.48,-14.74 11.25,-43.69l77.03 -491.24c0.97,-18.56 3.93,-35.12 6.53,-50.77 5.79,-34.9 24.81,-167.77 31.73,-197.51l-0.3 0c-18.41,0.03 -31.25,3.09 -48.83,5.78l-71.76 9.43c-21.27,2.65 -16.69,-2.37 -25.14,58.41l-28.24 193.82c-16.62,-1.38 -25.2,-8.05 -45.28,-9.64 -66.31,-5.24 -117.78,-13.97 -182.32,18.38 -36.19,18.14 -74.08,49.17 -96.63,82.45z"/>
  <path class="fil2 str1" d="M-2923.44 2287.8l-38.18 245.97c52.05,12.13 75.98,26.27 145.64,26.27 77.53,0 140.23,-16.29 189.16,-75.86 49.01,-59.64 78.82,-179.54 52.32,-258.78 -27.14,-81.09 -124.18,-95.53 -182.81,-62.76 -34.08,19.04 -23.3,14.76 -49.12,32.07 0.21,-9.11 3.23,-20.75 4.38,-29.07 3.31,-23.69 11.84,-70.39 12.32,-87.93 0.97,-33.26 16.73,-90.1 16.73,-119.39l-102.66 16.71c-2.38,10.19 -3.56,21.15 -5.48,32.72 -1.61,9.72 -4.4,25.69 -5.8,34.81 -6.65,43.44 -35.18,216.13 -36.5,245.24zm74.03 176.73c2.71,-32.45 19.92,-120.21 25.53,-160.72 3.04,-21.92 5.78,-18.16 29.92,-39.34 21.99,-19.27 54.46,-34.37 88.57,-22.78 51.78,17.56 33.97,134.61 12.81,174.35 -2.67,4.97 -6.05,10.47 -9.25,14.62 -7.7,10.02 -28.73,27.58 -38.96,32.67 -11.29,5.61 -21.54,10.76 -37,10.76 -24.81,0 -48.81,1.38 -71.62,-9.56z"/>
  <path class="fil2 str1" d="M-2482.33 2290.8l33.39 152.85c3.1,15.63 23.31,103.96 19.94,114.04 -4.16,12.47 -8.62,21.69 -16.55,31.39 -14.21,17.37 -33.86,30.66 -64.84,30.66 -18.16,0 -27.14,-4.78 -42.98,-4.78l0 85.95 54.92 2.4c61.59,0 109.35,-42.98 138.94,-90.28 21.89,-35 40.73,-75.6 59.19,-112.71l59.7 -114.59c6.36,-12.72 13.51,-25.51 18.75,-38.53 3.12,-7.72 5.08,-12.8 9.53,-19.13 8.64,-12.22 85.24,-161.02 86.31,-173.96l-100.28 0c-0.73,9.05 -15.8,36.86 -21.92,49.72 -9.24,19.42 -14.51,25.64 -24.78,51.6l-48.02 102.41c-3.67,6.52 -5.29,7.92 -8.78,15.09l-25.41 51.02 -10.55 -68.24c-10.81,-59.67 -24.43,-161.78 -34.8,-206.38 -14.41,0 -26.84,3.28 -40.59,4.78 -14.58,1.61 -27.18,3.37 -42.54,5.22 -25.71,3.09 -33.39,-11.01 -15.57,55.3 6.6,24.59 11.89,52.5 16.94,76.17z"/>
  <path class="fil2 str1" d="M-4683.58 3330.62c18.93,-43.81 32.75,-87.09 52.41,-129.05 5.08,-10.86 8.65,-21.27 13.05,-32.29l33.08 -79.17c2.38,-5.31 3.36,-9.26 5.81,-15.67 17.98,-47.14 75.57,-179.06 84.39,-206.9 2.58,-8.1 2.92,-10.36 5.96,-17.91l32.75 -77.52c2.87,-7.78 5.15,-11.77 -4.64,-13.82l-226.93 -0.05c-6.41,9.57 -47.73,125.85 -53.87,141.88l-52.48 143.32c-27.91,74.79 -54.42,138.7 -79.56,214.13 -3.7,11.15 -8.44,23.37 -12.92,34.83l-18.4 36.51c0,-11.4 -2.96,-20.56 -5.01,-30.81l-18.02 -88.58c-7.32,-52.48 -39.37,-196.88 -51.24,-255.25l-8.7 -53.36c-16.49,-82.41 -14.61,-128.77 -104.9,-141.03 -32.44,-4.4 -321.02,-1.64 -368.4,-1.64 0,12.08 -1.61,12.27 -2.39,21.48 13.86,0.31 49.38,12.39 61.73,17.06l60.03 21.14 107.44 52.53 37.54 136.75c3.34,18.53 6.28,31.21 11.22,48.49 8.89,31.36 17.19,61.25 25.26,91.72l43.85 161.47c5.65,22.38 8.16,41.93 17.36,73.41l37.68 139.01c9,31.44 17.96,62.89 25.24,94.15l236.35 0c1.95,-8.38 8.82,-21.61 12.6,-30.36l39.92 -96.19c17.13,-43.16 31.68,-85.97 51.31,-127.78 5.1,-10.87 7.75,-19.52 12.48,-30.5z"/>
  <path class="fil2 str1" d="M-4400.52 2969.03l-105.72 646.42c16.61,0 219.31,3.06 224.59,-2.2 3.02,-3.03 24.55,-142.04 28.14,-162.89 2.17,-12.74 1.58,-21.2 3.33,-34.89l101.72 -624.16c1.71,-10.35 4.87,-23.17 5.1,-33.07l-217.26 0c-11.01,0 -12.36,28.63 -15.01,47.05 -2.2,15.21 -7.61,37.54 -8.71,53.37 -1.61,22.79 -3.27,35.72 -7.11,54.99 -3.55,17.77 -6.25,38.54 -9.07,55.38z"/>
  <path class="fil2 str1" d="M-4057.41 3028.04c0,60.82 27.83,110.29 66.23,148.67 7.38,7.38 11.6,10.03 19.1,16.71 17.21,15.35 46.02,33.75 65.19,44.63 3.95,2.25 6.5,3.13 10.77,5.95l82.2 44.33c27.7,14.29 67.61,42.2 66.48,78.6 -1.1,35.5 -39.17,63.61 -71.15,71.9 -68.21,17.66 -153.8,6.89 -218.72,-17.82 -9.5,-3.59 -16.21,-6.5 -25.56,-10.23 -9.7,-3.86 -16.13,-7.15 -25.59,-10.24 -11.49,-3.73 -15.8,-9.26 -28.65,-9.55l-28.65 193.42c6.57,3.13 14.58,5.81 22.18,8.87 9.5,3.8 13.82,5.8 24.51,8.91 38.94,11.29 129.45,25.17 170.4,25.2l61.21 0c21.94,-0.49 43.13,-2.16 72.67,-7.13 11.04,-1.86 22.65,-5.09 31.68,-6.54 48.75,-7.86 102.77,-33.72 139.54,-61 70.1,-52.01 108.09,-117.45 108.09,-226.19 0,-21.31 -4.65,-52.09 -11.23,-67.56 -34.83,-81.93 -112.87,-128.56 -189.3,-166.47l-51.53 -27.25c-34.86,-21.24 -77.02,-56.13 -43.77,-99.07 15.85,-20.48 63.24,-38.41 97.67,-38.41 57.46,0 70.83,-1.9 128.95,14.3 29.73,8.3 60.01,23.58 71.61,26.28l31.02 -188.63c-8.4,-1.97 -12.74,-4.28 -19.44,-6.83 -72.31,-27.5 -201.06,-34.24 -278.32,-18.78 -29.57,5.92 -25.44,1.37 -64.87,13.93 -66.4,21.16 -145.52,74.65 -178.52,136.61 -20.47,38.39 -34.2,75.88 -34.2,123.39z"/>
  <path class="fil2 str1" d="M-3331.02 3131.36l-104.66 248.71c-8.83,21.08 -16.68,37.55 -25.22,58.36l-73.68 177.02 236.35 0c10,-20.86 15.94,-44.02 22.62,-65.73 1.95,-6.33 3.98,-8.64 6.34,-15.12l11.25 -31.75c2.28,-7.37 2.01,-13.95 9.92,-13.95l274.56 0 13.31 63.08c4.92,22.11 8.07,42.54 12.94,63.47l207.71 0c0,-14.71 -40.83,-197.08 -44.78,-215.51l-21.07 -107.85c-17.27,-87.22 -39.79,-179.8 -57.3,-267.44l-50.13 -243.54c-1.81,-9.64 -1.55,-22.87 -10.55,-22.87l-136.09 0c-91.59,0 -118.74,13.38 -148.79,78l-117.26 279.09c-2.43,6.19 -3.23,10.12 -5.47,16.03zm241.18 -88.31c5.1,-12.73 10.48,-25.36 13.63,-38.88 0.34,0.5 0.7,0.74 0.79,1.61 0.11,0.84 0.62,1.25 0.76,1.62 0.55,1.44 0.93,2.42 1.18,3.03 -3.26,-9.95 1.51,3.58 0.14,0.44l59.8 281.63c1.21,5.64 3.59,12.55 4.18,19.69l-179.05 0c3.39,-14.6 9.35,-25.4 14.06,-38.47 4.66,-12.99 10.12,-25.69 14.3,-38.22 4.36,-13.17 9.35,-26.16 14.57,-37.96l55.64 -154.49z"/>
  <path class="fil2 str1" d="M-4315.26 1889.07c0,82.7 157.56,70.56 157.56,-26.26l0 -14.34c0,-31.19 -28.72,-57.31 -69.22,-57.31 -37.09,0 -63.6,19.28 -78.05,48.49 -4.2,8.44 -10.29,21.42 -10.29,32.7l0 16.72z"/>
  <path class="fil2 str1" d="M-4885.83 1889.07c0,82.7 157.55,70.56 157.55,-26.26l0 -14.34c0,-43.7 -52.07,-71.46 -104.77,-49.89 -15.22,6.24 -16.2,7.78 -24.88,18.09 -12.82,15.16 -27.9,31.16 -27.9,60.45l0 11.95z"/>
  <path class="fil4" d="M2958.21 1177.74l42.89 17.13c-2.87,15.86 -7.41,29.09 -13.6,39.74 -6.2,10.66 -13.91,18.68 -23.09,24.08 -9.19,5.4 -20.84,8.12 -35.04,8.12 -17.23,0 -31.32,-3.31 -42.2,-9.87 -10.92,-6.62 -20.36,-18.24 -28.29,-34.88 -7.93,-16.59 -11.88,-37.89 -11.88,-63.82 0,-34.59 6.97,-61.19 20.92,-79.73 13.94,-18.58 33.67,-27.87 59.16,-27.87 19.95,0 35.66,5.3 47.06,15.95 11.4,10.66 19.89,27 25.45,49.04l-43.23 12.7c-1.51,-6.38 -3.1,-11.05 -4.75,-14.01 -2.73,-4.92 -6.09,-8.71 -10.03,-11.39 -3.95,-2.67 -8.42,-3.99 -13.32,-3.99 -11.1,0 -19.58,5.89 -25.49,17.66 -4.46,8.75 -6.71,22.47 -6.71,41.2 0,23.2 2.66,39.06 8.01,47.67 5.34,8.61 12.83,12.89 22.46,12.89 9.36,0 16.45,-3.45 21.24,-10.41 4.79,-6.95 8.26,-17.02 10.44,-30.21zm60.46 -18.96c0,-34.1 7.19,-60.62 21.61,-79.64 14.43,-19.01 34.49,-28.5 60.2,-28.5 26.37,0 46.7,9.34 60.97,28.02 14.28,18.63 21.4,44.8 21.4,78.41 0,24.42 -3.14,44.47 -9.37,60.07 -6.24,15.62 -15.24,27.78 -27,36.49 -11.77,8.71 -26.45,13.04 -44.04,13.04 -17.89,0 -32.69,-3.75 -44.38,-11.24 -11.69,-7.54 -21.21,-19.41 -28.47,-35.66 -7.27,-16.24 -10.92,-36.57 -10.92,-60.99zm48.98 0.29c0,21.11 2.95,36.28 8.89,45.48 5.94,9.19 14.06,13.81 24.27,13.81 10.51,0 18.66,-4.52 24.42,-13.52 5.79,-9.05 8.67,-25.25 8.67,-48.59 0,-19.71 -3.03,-34.05 -9.04,-43.11 -6.01,-9.09 -14.2,-13.61 -24.49,-13.61 -9.85,0 -17.78,4.62 -23.75,13.81 -5.98,9.19 -8.97,24.47 -8.97,45.73zm141.02 -104.88l64.4 0 24.86 127.1 24.74 -127.1 64.19 0 0 208.93 -39.99 0 0 -159.31 -31.02 159.31 -36.18 0 -30.91 -159.31 0 159.31 -40.09 0 0 -208.93zm209.2 0l81.38 0c17.7,0 30.98,5.54 39.79,16.69 8.82,11.14 13.25,26.95 13.25,47.42 0,21.11 -4.8,37.6 -14.43,49.47 -9.62,11.87 -24.3,17.81 -44.04,17.81l-26.78 0 0 77.54 -49.17 0 0 -208.93zm49.17 89.07l11.99 0c9.45,0 16.09,-2.15 19.88,-6.48 3.8,-4.32 5.72,-9.82 5.72,-16.58 0,-6.57 -1.66,-12.16 -4.98,-16.69 -3.28,-4.57 -9.52,-6.85 -18.67,-6.85l-13.94 0 0 46.6zm110.84 -89.07l48.99 0 0 157.46 76.39 0 0 51.47 -125.38 0 0 -208.93zm149.53 0l49.06 0 0 208.93 -49.06 0 0 -208.93zm181.64 174.44l-55.78 0 -7.67 34.49 -50.02 0 59.53 -208.93 53.38 0 59.57 208.93 -51.24 0 -7.77 -34.49zm-10.26 -45.19l-17.52 -75.11 -17.41 75.11 34.93 0zm85.21 -129.25l45.74 0 59.63 115.58 0 -115.58 46.15 0 0 208.93 -46.15 0 -59.34 -114.7 0 114.7 -46.03 0 0 -208.93zm172.91 0l148.8 0 0 51.61 -49.94 0 0 157.32 -48.95 0 0 -157.32 -49.91 0 0 -51.61z"/>
  <path class="fil1" d="M2926.53 1218.36c-9.63,0 -17.11,-4.27 -22.47,-12.89 -5.34,-8.61 -8,-24.47 -8,-47.67 0,-18.73 2.26,-32.45 6.72,-41.2 5.9,-11.77 14.38,-17.65 25.48,-17.65 4.9,0 9.37,1.31 13.32,3.99 3.93,2.67 7.29,6.46 10.03,11.38 1.65,2.96 3.25,7.63 4.76,14l43.22 -12.7c-5.57,-22.03 -14.05,-38.38 -25.44,-49.02 -11.4,-10.66 -27.12,-15.96 -47.06,-15.96 -25.5,0 -45.23,9.29 -59.17,27.88 -13.95,18.53 -20.92,45.13 -20.92,79.72 0,25.93 3.95,47.23 11.88,63.82 7.93,16.63 17.37,28.26 28.3,34.88 10.87,6.56 24.96,9.87 42.19,9.87 14.19,0 25.85,-2.72 35.03,-8.13 9.19,-5.39 16.89,-13.42 23.09,-24.08 6.2,-10.64 10.74,-23.88 13.62,-39.74l-42.9 -17.11c-2.18,13.18 -5.65,23.24 -10.44,30.21 -4.79,6.95 -11.88,10.4 -21.24,10.4z"/>
  <path class="fil1" d="M3040.28 1079.14c-14.42,19.03 -21.61,45.54 -21.61,79.64 0,24.42 3.64,44.75 10.92,60.99 7.26,16.25 16.77,28.12 28.47,35.66 11.69,7.49 26.49,11.24 44.38,11.24 17.58,0 32.27,-4.33 44.04,-13.04 11.76,-8.71 20.76,-20.87 27,-36.48 6.22,-15.62 9.36,-35.65 9.36,-60.07 0,-33.63 -7.12,-59.79 -21.39,-78.42 -14.28,-18.68 -34.6,-28.02 -60.98,-28.02 -25.7,0 -45.77,9.49 -60.19,28.5zm36.33 34.2c5.99,-9.2 13.91,-13.81 23.76,-13.81 10.29,0 18.48,4.53 24.49,13.62 6.02,9.04 9.04,23.4 9.04,43.09 0,23.35 -2.88,39.56 -8.67,48.6 -5.76,9.01 -13.9,13.52 -24.42,13.52 -10.21,0 -18.34,-4.62 -24.27,-13.81 -5.94,-9.2 -8.89,-24.37 -8.89,-45.48 0,-21.26 2.99,-36.54 8.96,-45.73z"/>
  <polygon class="fil1" points="3208.66,1054.19 3208.66,1263.12 3248.76,1263.12 3248.76,1103.81 3279.67,1263.12 3315.85,1263.12 3346.87,1103.81 3346.87,1263.12 3386.85,1263.12 3386.85,1054.19 3322.67,1054.19 3297.92,1181.3 3273.07,1054.19 "/>
  <path class="fil1" d="M3417.88 1054.19l0 208.93 49.16 0 0 -77.54 26.78 0c19.74,0 34.42,-5.94 44.04,-17.8 9.64,-11.88 14.43,-28.37 14.43,-49.48 0,-20.47 -4.43,-36.29 -13.24,-47.43 -8.82,-11.14 -22.1,-16.68 -39.8,-16.68l-81.37 0zm61.15 89.07l-11.99 0 0 -46.6 13.95 0c9.14,0 15.38,2.29 18.66,6.86 3.32,4.53 4.98,10.11 4.98,16.68 0,6.76 -1.92,12.26 -5.73,16.59 -3.79,4.32 -10.43,6.47 -19.87,6.47z"/>
  <polygon class="fil1" points="3577.89,1054.19 3577.89,1263.12 3703.25,1263.12 3703.25,1211.65 3626.87,1211.65 3626.87,1054.19 "/>
  <polygon class="fil1" points="3727.41,1054.19 3727.41,1263.12 3776.47,1263.12 3776.47,1054.19 "/>
  <path class="fil1" d="M3855.12 1054.19l-59.54 208.93 50.02 0 7.67 -34.49 55.77 0 7.78 34.49 51.24 0 -59.57 -208.93 -53.37 0zm8.74 129.25l17.41 -75.11 17.52 75.11 -34.93 0z"/>
  <polygon class="fil1" points="3984,1054.19 3984,1263.12 4030.03,1263.12 4030.03,1148.41 4089.38,1263.12 4135.53,1263.12 4135.53,1054.19 4089.38,1054.19 4089.38,1169.76 4029.73,1054.19 "/>
  <polygon class="fil1" points="4206.82,1105.8 4206.82,1263.12 4255.76,1263.12 4255.76,1105.8 4305.7,1105.8 4305.7,1054.19 4156.91,1054.19 4156.91,1105.8 "/>
 </g>
</svg>
